<?xml version="1.0" encoding="UTF-8"?><svg xmlns="http://www.w3.org/2000/svg" xmlns:xlink="http://www.w3.org/1999/xlink" viewBox="0 0 835.75 765.88"><defs><style>.e{fill:#fff;}.f{mix-blend-mode:multiply;opacity:.75;}.g{isolation:isolate;}.h{stroke:#05c6cf;stroke-width:3px;}.h,.i{stroke-miterlimit:10;}.h,.j{fill:none;}.k{fill:#ad48b9;}.i{fill:#939598;stroke:#231f20;stroke-width:2px;}.l{clip-path:url(#d);}.m{fill:#05c6cf;}</style><clipPath id="d"><ellipse class="j" cx="485.92" cy="345.08" rx="348.33" ry="343.58"/></clipPath></defs><g class="g"><g id="a"/><g id="b"><g id="c"><g><g class="l"><g><rect class="e" x="-26.71" y="-206.87" width="1685.04" height="999.86" transform="translate(57.96 -127.77) rotate(9.28)"/><g><path class="e" d="M359.56,499.19c-9.19-12.53-2.27,9.91-4.87,1.5l-19.23-27.84c17.51,22.26,19.33-18.19,24.1,26.34Z"/><path class="e" d="M299.36,465.47l-8.21-3.65c-.95-8.94-1.19-27.3,7.11-17.53-1.55,6.62-1.48,12.74,1.1,21.18Z"/><path class="m" d="M182.69,538.17l-.21-12.31c1.74,5.68,10.74,5.98,11.73,15l-11.52-2.69Z"/><path class="m" d="M375.02,141.82c-.37,1.95-.35,4.36,.42,7.74-8.01,4.58-13.78,4.13-25.87-2.03-4.06-10.74-23.03-27.9-12.87-30.53l2.09,1.9c5.16-4.79,7.85-23.62-2.63-33.14-6.54,1.16-7.7,16.69-23.4,11.89-12.64-11.44-22.14-29.66-23.79-45.4l-20.88-.12c-8.13-14.62-4.28-22.96-7.4-35.36l10.72,2.72c1.02-8.59,14.8-12.55,1.85-29.29-7.29-3.19-11.54-5.36-15.64-7.91l-90.84-56.66-47.3,41.14c-3.4,2.96-6.65,6.18-9.65,9.59l-.95,1.11-.89,1.07c-.59,.72-1.17,1.45-1.74,2.18-1.14,1.47-2.25,2.98-3.31,4.51-3.65,5.3-6.54,10.72-8.32,14.69-.5,1.09-.98,2.19-1.44,3.29-.4,.97-.71,1.79-1.06,2.71-.34,.9-.66,1.8-.98,2.71l-.46,1.37-.22,.68-.17,.55c-.45,1.48-.88,2.98-1.28,4.49l-.29,1.14-.23,.96c-.14,.62-.28,1.25-.42,1.88-1.12,5.26-1.51,8.9-1.84,12.61-.05,.8-.1,1.61-.15,2.43-.04,.81-.09,1.7-.1,2.37-.03,1.41-.06,3.02-.02,4.25,.1,5.36,.57,9.73,1.2,13.86,.63,4.11,1.45,7.92,2.42,11.7-2.65,9.38-3.2,18.49-2.57,27.51,.63,9.02,2.46,17.91,4.68,26.61,4.44,17.37,10.44,33.96,11.75,48.13,15.88,10.31,17.91,31.09,20.69,50.85,2.76,19.75,6.2,38.43,24.35,43.98,2.71,22.12,9.37,32.88,17.87,40.4,8.51,7.52,18.88,11.8,29.18,20.88-3.57,18.63-11.92,9.59-20.71-1.45-8.79-11.03-18-24.09-23.43-13.15,8.24,49.31,32.56,98.39,45.37,147.18,14.3,8.92,19.65-15.55,29.98,8.79-9.09-6.32-18.3,6.57-15.72,15.56-1.27-10.29,5.24-1.34,9.16-1.33l.02-7.74c24.81-13.07,7.69,34.63,25.95,47.28-6.53,10.35-2.6-8.96-11.71-7.58-11.75,3.98-23.49,15.68-20.89,40.09,28.77,40.78,11.95,80.89,33.15,129.36,9.1-5.33,9.21,10.09,13.18,17.71-11.79-7.47-15.54,15.7-14.16,25.97,9.2,10.13,28.75,5.85,32.83,25.02l14.18-18.27c-.06-7.69-15.91-30.48-23.78-41.87,18.14-14.45-29.07-59.85,.92-62.93l-1.23,9.03c-1.17,32.07,31.5,37.93,49.94,61.9-1.13,24.4-12.78,36.17-19.16,54.27,.19,19.23,9.34,21.59,17.25,29.1,9.26,13.88,2.82,24.29,.31,34.6,2.67,5.03,3.89-3.94,6.54,1.12,.07,7.69-1.16,16.67,1.5,21.69,18.25-2.95,8.83-32.16,8.66-51.39,3.94,3.75,7.84,3.67,9.22,10.05,2.66,5.04-1.25,5.11-2.56,6.45l5.34,10.13c5.19-1.39,14.27-6.74,19.61,7.2l-7.72,11.71c1.36,7.3,4.17,13.12,7.43,17.11,1.63,1.99,3.38,3.53,5.1,4.51,.86,.48,1.71,.83,2.51,.93,.21,.04,.4,.03,.59,0h.14l.07-.02s.02,0,.03-.01h.02s-.08,0,.09-.04c3.56-1.02,7-1.98,10.33-2.88,3.01-.82,5.92-1.6,8.72-2.36,2.34-.63,4.59-1.21,6.76-1.73l.81-.19,.59-.16c.36-.09,.72-.19,1.07-.28,.71-.18,1.4-.33,2.08-.47,1.63-.28,1.99-.53,2.76-.49-14.67,0,32.92,0-32.86,0h.03l.04,.03,.07,.03,.15,.05,.29,.1c.2,.06,.39,.11,.59,.16,.39,.09,.79,.14,1.18,.16,.79,.04,1.57-.06,2.35-.32l.29-.1,.14-.06,.07-.03,.04-.02h.02c-24.72,0,33.69-.01,27.64-.01h-.07c-.37,0-.74,.04-1.11,.14-.1,.03-.17,.06-.3,.09l-.53,.1c-.35,.07-.71,.14-1.07,.22-.72,.15-1.46,.33-2.21,.52-.38,.1-.77,.21-1.16,.31-.57,.14-1.14,.28-1.72,.42-2.32,.57-4.75,1.2-7.27,1.9-3.19,.87-6.53,1.77-10,2.71-.33,.09-.19,.05-.21,.06h.05l.07-.03s.09-.01,.13-.05l.24-.17c.62-.48,1.11-1.31,1.51-2.27,1.57-3.95,1.61-10.54-.73-19.74l-11.74,.27,4.83-39.79c9.06-9.14,13.19,13.81,23.6,10.97,14.36,.94,11.43-31,10.01-45.03-11.82-11.23-7.7,11.71-6.33,21.89l-24.88-13.48c-2.67-5.04-1.45-14.06,3.75-15.44,3.86-7.83,20.84-5.61,15.54-15.73-6.79-31.83-19.55,4.3-28.88-21.14-16.87,13.19-7.32,57.81-12.37,74.58l4,11.42c-7.74,7.87-9.26-17.68-9.1,1.52-21.11-25.14-11.14-74.08-4.81-99.83,11.72-4.11,15.46-31.06,36.42-17.4-1.36-10.22,6.4-18.03-.17-30.72-31.5-30.05-12.02-53.46-27.72-83.87-1.31,5.15-7.84,.1-11.74,.22-6.57-47.24,56-2.2,26.04-60.49-5.2-10.12-13.01-13.86-18.23-8.66-1.33,8.95-7.83,19.27-.02,30.66-5.22,1.38,1.31,21.69-13.06,12.98-5.2-29.34-28.68-36.7-31.24-60.99l-10.42-5c-2.56-8.91-18.12-27.99-15.43-42.09-4.96-37.05,18.27-2.68,27.4-4.07l-3.68-30.66c-14.88-13.95-12.09-29.94-9.61-45.09,2.48-15.16,4.67-29.47-11.45-40.31l6.51,1.28c12.81,14.01,19.74-11.46,16.07-22.9l-7.65-7.63c-13.61-3.85-19.83-17.58-24.44-33.67-4.61-16.1-7.59-34.53-14.9-47.97-1.04-6.34,3-10.06,5.39-4.96,.45-11.39,.96-22.74,1.54-34.04-12.3-1.58-13.96-7.32-13.52-14.83,.44-7.52,2.99-16.79-.92-25.63-6.13-5.25-11.75-8.3-17.15-12-5.39-3.7-10.58-8.04-15.66-15.86,2.12-13.34,1.55-24.32,.29-33.64-.62-4.61-1.39-8.89-1.95-12.06-.13-.75-.26-1.46-.37-1.97-.05-.23-.11-.48-.15-.59-.03-.08-.05-.14-.08-.15l-.04-.04h0s.03,0-.04,0l-.2-.02-.78-.06-1.51-.11c-8.2-.69-15.17-1.72-20.5-3.11-1.41-.41-2.48-.66-3.67-1.12-.55-.19-1.02-.34-1.53-.56l-1.36-.59c-1.69-.8-2.8-1.68-3.23-2.22l-31.22,19.68c9.97,11.47,18.75,23.57,22.8,42.59,17.52-5.35,36.44,12.08,40.16-15.43,17.79,40.11,26.11,81.87,47.33,118.01,3.89,.62,7.71,1.58,11.63,2.08,16.8-6.63,45.79-12.31,68.7-21.95,22.92-9.63,39.75-23.17,32.41-45.36Z"/><path class="e" d="M419.82,559.64c16.88,9.44,40.9,16.62,39.57,1.94-14.22-19.36-36.24-24.38-45.02-48.21-10.48,8.7,4.83,34.98,5.45,46.27Z"/><path class="m" d="M350.77,439.94l-8.93-25.42-9.2,9c-.13,22.98,13.03,2.44,18.14,16.42Z"/><path class="e" d="M587.22,537.63c5.12-4.48,14.11-4.55,3.83-11.11l-20.56-5.48c4.46,.02,12.89,27.78,16.72,16.59Z"/><path class="e" d="M648.44,565.26l13.14-15.9c-8.35-4.08-18.55-2.68-21.81-11.45,5.19,10.9-2.37,17.74,8.67,27.34Z"/><path class="e" d="M568.34,468.84c2.64,18.87,13.24,21.39,22.66,23.84,9.44,2.47,17.71,4.86,16.08,23.69,14.41,12.56,23.23,13.45,29.27,9.05,6.05-4.41,9.37-14.13,12.91-23.01-4.77-5.4-9.25-1.46-15.08,2.23-5.84,3.69-13.03,7.14-23.25,.62-6.98-13.22-15.82-28.67-8.63-38.61-11.63-14.89-15.5-11.61-18.79-5.94-3.28,5.66-5.94,13.7-15.17,8.12Z"/><polygon class="e" points="683.64 533.13 672.15 520.46 667.81 535.94 683.64 533.13"/><polygon class="e" points="613.72 430.22 597.88 424.72 613.47 445.63 613.72 430.22"/><path class="e" d="M667.18,429.77l-7.48-8.68c-9.45-3.15-18.32-3.09-16.61,6.76,10.62,9.77,16.48,.93,24.09,1.92Z"/><path class="m" d="M368.38,289.08c-1.82,48.17,8.79,101.17,30.83,150.84,11.37,3.6,22.8,7.69,34.11,13.56l9.19,34.94c20.93,25.1,50.04,51.31,80.32,52.47,1.33,6.73-1.23,8.97,.12,15.71,12.89,4.48,23.59,26.94,40.39,27.87,4.88,15.66-2.67,22.55-4.16,36.16,14.89,8.82,24.5,25.57,35.17,41.8,10.64,16.2,22.42,31.95,40.72,37.94-2.23,7.96-.27,13.42,3.86,17.62,1.02,1.05,2.21,2.02,3.48,2.93l.98,.67c.45,.32,.89,.64,1.34,.97,.9,.63,1.89,1.3,2.86,1.94,3.92,2.56,8.13,4.89,12.34,7.15,8.47,4.5,16.82,8.67,23.66,14.01,6.85,5.36,12.11,12.11,15.04,22.2,7.59,7.29,16.08,13.54,25,18.11,8.92,4.6,18.24,7.71,27.61,8.8,4.67,.54,9.4,.49,13.54-.25,4.22-.71,8.32-1.71,12.25-2.96,7.86-2.49,14.98-6.06,20.82-10.05,4.41-2.98,8.1-6.21,10.99-9.38,2.9-3.18,5.01-6.31,6.31-9.33,.35,2.57-3.2,8.52-4.35,13.96-1.09,5.41,.3,10.38,12.28,10.33,4.29-3.1,12.99-7.57,12.62-9.24,1.11-.35,4.56-.87,9.34-1.69,2.39-.41,5.12-.89,8.05-1.47,1.47-.28,2.98-.6,4.53-.93,.39-.08,.78-.17,1.17-.25l.58-.13c.19-.04,.28-.05,.42-.08,.51-.09,1.03-.19,1.56-.28,8.33-1.59,17.11-4.52,20.11-10.04,2.57-4.21,2.85-6.93,1.17-9.19-10.4-2.4-14.56-9.45-14.87-19.17-.3-9.73,3.26-22.15,8.36-35.51,5.09-13.35,11.75-27.67,17.42-41.09,5.65-13.39,10.33-26.04,10.26-34.96,.72-1.64,1.45-3.2,2.08-4.83,.32-.82,.61-1.65,.84-2.53,.19-.89,.45-1.87,.1-2.98-.1,.36-.7,.63-1.25,.81-.57,.18-1.19,.31-1.82,.42-1.26,.22-2.56,.37-3.86,.53-1.36,.18-2.43,.22-3.85,.44-1.4,.21-2.95,.51-4.58,.87-6.6,1.46-14.38,3.83-22.72,7.2,4.07,3.03-.46,6.55-4.16,9.7-3.69,3.14-6.47,5.93,1.65,7.53,2.67-.96,4.7-3.5,7.3-4.5,7.3,.92,14.57,1.77,21.68,2.5-6.1,6.28-19.72,10.54-32.42,15.45-12.71,4.94-24.53,10.65-27.37,20.56-2.62,.19-5.07,.18-7.37,0-.61-.03-1.06-.13-1.55-.21-.48-.09-.96-.18-1.43-.29-.93-.21-1.83-.47-2.69-.76-3.45-1.15-6.36-2.84-8.95-4.81-5.17-3.94-9.09-8.95-13.26-13.01-1.85,.42-3.73,.73-5.65,.98-4.72,.59-9.43,.75-13.96,.74-.56,.02-1.15-.1-1.73-.2-.58-.17-1.16-.32-1.73-.58-1.15-.45-2.24-1.11-3.31-1.76-2.13-1.36-4.09-2.92-5.98-4.41-3.78-3.01-7.25-5.75-10.92-7.59-3.67-1.86-7.55-2.85-12.14-2.68-4.41-2.66-7.38-5.77-9.09-8.92-.87-1.6-1.41-3.11-1.76-4.75-.71-1.97-1.25-3.98-1.52-5.93-1.13-7.84,1.13-15.15,2.34-22.3-7.26-2.37-13.85-9.57-20.11-15.69-6.27-6.11-12.24-11.15-18.48-9.07-10.26-25.65-1-45.96,2.64-64.64-7.02-20.4-14.54-13.52-30.37-18.45-12.03-16.11-4.22-20.2,2.75-24.5,6.98-4.34,13.15-8.85-1.84-25.99-8.65-15.09-33.85-23.55-41.59-16.89-5.37-21.93-31.2-34.01-31.41-52.82-22.56-1.72-31.56-17.87-40.62-34.84-9.07-16.99-18.18-34.82-41.3-40.25-24.26-34.06-57.61-48.99-90.41-73.46-29.14,11.26-49.5,34.55-55.59,67.96Z"/></g><g><path class="m" d="M758.72,558.86l.53-6.16c1.24,2.27,9.32-.68,9.68,3.56l-10.22,2.6Z"/><path class="m" d="M627.58,279.96c.95-1.3,1.72-2.82,2.21-4.83,8.07-4.32,12.63-5.05,20.51-3.29-.21,6.09,9.68,13.59,.49,17.04l-1.09-.83c-5.8,3.94-14.21,16.33-8.74,20.48,5.75-1.9,11.8-11.91,23.11-11.66,6.6,4.99,8.47,14.79,4.67,24.42l17.14-3.63c1.93,7.76-3.96,13.69-5.43,20.94l-7.94,.19c-3.63,5.58-16.3,10.52-11.05,18.74,10.11,1.47,11.2,2.31,20.03,7-6.45,15.96,13.41,25.02,16.12,37.63,14.23-1.57,16.21,7.91,18.66,16.67,2.42,8.77,5.3,16.83,21.4,12.63,4.32,20.36,22.95,11.85,41,13.53-7.23,21.87-29.02-6.21-39.13,9.11,6.36,21.98,26.53,38.25,35.93,58.83,12.46-.46,18.32-15.01,26.57-6.05-7.91-.07-16.74,9.84-14.84,13.55-.66-4.85,4.78-2.53,8.31-3.89l.38-4.01c11.46-7.74,12.82-3.92,13.24,1.86,.44,5.77-.05,13.46,7.83,13.62-6.44,7.58-1.87-3.76-10.16,.09-10.8,6.1-22,16.15-21.09,27.7,5.85,2.76,9.14,6.48,11.02,10.77,1.83,4.27,2.25,9.11,2.42,14.13,.12,5.01-.02,10.19,.77,15.21,.7,4.98,2.42,9.83,6.08,14.14,8.8-5.42,7.44,2.14,10.34,4.69-5.04-.07-8.94,3.05-11.63,6.68-2.7,3.62-4.15,7.77-4.09,10,1.82,.52,4.35,.44,7.12,.14,2.76-.31,5.78-.84,8.62-1.17,5.68-.67,10.7-.55,11.43,3.41,5.1-4.16,10.13-8.4,15.17-12.67,.85-3.71-11.34-10.37-17.47-13.61,8.96-6.31,3.73-11.6-.46-16.62-4.12-5.01-7.12-9.79,6.62-15.33l-1.79,4.99c-1.85,8.31,4.6,10.64,13.26,11.79,8.69,1.15,19.77,1.17,27.1,4.64-1.63,6.38-5.55,11.8-9.98,16.95-2.22,2.57-4.58,5.08-6.87,7.59-2.31,2.51-4.61,5-6.64,7.57-1.12,4.53,.39,6.45,2.85,7.39,2.5,.96,6.11,1.02,9.26,1.79,1.7,1.06,2.4,2.18,2.54,3.4,.13,1.22-.33,2.53-1.13,3.85-.82,1.31-1.89,2.72-3.14,3.96-1.23,1.27-2.52,2.51-3.57,3.67,1.57,1.43,4.34-2.44,5.9-.96-1.21,3.27-4.4,6.49-2.92,7.73,8.88-2.2,12.66-5.43,14.49-9.48,.83-2.11,1.2-4.35,1.57-6.6,.32-2.29,.51-4.67,1.2-6.86,3.11,.82,6.77-.08,7.12,2.58,1.69,1.73-2.01,2.57-3.45,3.45l3.3,3.35c2.56-.81,6.2-2.26,9.54-2.84,1.66-.29,3.29-.34,4.61-.02,1.32,.32,2.38,1.05,3.01,2.37-3.15,2.14-6.28,4.26-9.5,6.21-.47,5.22,5.19,6.23,11.56,6.17,1.58,.04,3.17-.17,4.66-.64,1.49-.46,2.89-1,4.07-1.84,2.35-1.64,4.04-4.17,3.52-8.07-3.74,.53-7.48,1.1-11.2,1.71,1.11-1.4,2.05-2.97,3.03-4.53,.97-1.56,1.94-3.16,2.89-4.78,1.88-3.26,3.58-6.67,5.34-10.13,9.83-6.42,10.44,4.43,20.72,1.35,3.36-.44,6.04-1.78,8.12-3.72,2.06-1.92,3.53-4.42,4.58-7.14,.52-1.36,.94-2.77,1.28-4.18,.33-1.4,.55-2.77,.72-4.1,.34-2.66,.45-5.13,.51-7-4.96-1.81-7.06,.23-7.96,3.31-.91,3.12-.61,7.3-.58,9.88-7.3-.81-14.55-1.46-21.73-1.96-1.92-1.99,.27-6.96,5.28-8.91,4.46-5.05,20.11-7.82,16.2-12.07-1.64-7.78-6.29-5.98-11.31-3.67-5.04,2.33-10.39,5.09-13.52-.37-8.4,5.69-11.61,13.7-13.59,21.36-1.05,3.84-1.79,7.6-2.7,10.98-.96,3.37-2.14,6.34-3.91,8.63l1.07,2.33,.97,2.28c-4.26,2.61-5.72,1.03-6.47-.07-.4-.57-.63-1.02-.92-.77-.29,.25-.62,1.23-1.38,3.41-1.93-.87-3.44-2.05-4.52-3.45-1.07-1.4-1.7-3.01-1.99-4.8-.7-3.65,.06-8,1.44-12.7,1.35-4.7,3.55-9.7,5.78-14.49,2.25-4.79,4.7-9.35,6.77-13.13,5.6-2.68,9.85-7.8,14.95-12.13,5.11-4.32,11.06-7.86,20.2-7.07-.21-2.56,1.62-5.43,2.87-8.3,1.25-2.87,1.92-5.76-.67-8.23-13.4-3.59-15.22-9.75-15.3-16.66-.09-6.86,1.58-14.41-4.73-20.1-1.48,3.17-7.15,2.54-10.71,3.85-1.68-11.54,11.07-16.39,21.25-20.99,10.18-4.59,17.77-9.04,5.48-19.95-4.27-3.78-11.21-3.17-16.17,1.36-1.58,5.24-7.98,12.92-1.44,16.47-4.81,2.45,.1,11.18-12.52,11.19-3.24-13.99-24.18-10.04-25.39-22.01l-9.2,.91c-1.92-3.85-15.17-8.51-12.24-16.86-3.13-17.81,16.54-7.85,24.84-11.73l-2.31-15c-12.96-2.14-10-11.56-7.42-20.49,2.6-8.93,4.82-17.35-9.45-17.17l5.81-1.71c11.24,2.75,17.92-13.31,14.76-18.07l-6.77-1.22c-24.29,6.01-21.67-19.73-34.93-28.18-.97-2.91,2.6-6.44,4.78-4.68l.91-18.45c-22.01,8.02-6.37-9.33-14.08-15.4-11.37-.5-20.61,2.83-30.68-.85,3.43-26.89-23.94-24.97-17.23-51.34-16.18,6.47-26.08-1.18-38.11,16.83-1.57-22.14,5.26-47.09-.24-66.28-2.98,.29-5.8,.36-8.85,.73-15.95,7.17-41.56,15.88-63.49,26.03-21.94,10.15-40.18,21.72-41.51,34.49Z"/><path class="m" d="M824.37,664.59c-.51-1.69-.87-3.2-1.59-5.23l-4.29,2.49c-3.15,2.42-1.92,2.37,.25,2.15,2.17-.23,5.26-.66,5.63,.58Z"/><path class="e" d="M732.8,20.79c-10.2-3.24-26.81-3.92-31,5.3,4.47,10.11,20.38,9.66,19.12,23.47,11.45-7.34,8.36-21.62,11.88-28.76Z"/><path class="e" d="M591.1,61.9c-5.71,3.7-12.91,5.11-7.1,7.8l14.42,.38c-3.58,.7-.2-16.03-7.33-8.18Z"/><path class="e" d="M552.75,52.83l-16.39,12.26c5.09,1.53,13.69-.83,13.04,4.43-.08-6.4,8.46-11.94,3.35-16.69Z"/><path class="e" d="M581.51,103.57c9.12-23.62-30.26,.19-13.98-24.82-13.86-11.99-26.62,2.75-38.74,15.41,3.68,5.68,20.05-12.98,31.64-7.59,.78,7.55,2.36,16.2-6.94,23.79,8.08,15.7,17.16-11.07,28.02-6.79Z"/><polygon class="e" points="512.79 78.79 517.2 85.58 526.4 74.78 512.79 78.79"/><polygon class="e" points="531.41 135.83 542.22 136.88 537.06 125.77 531.41 135.83"/><path class="e" d="M488.3,144.4l2.93,4.54c6.48,.61,13.63-.82,15.74-6.97-5.07-4.74-12.91,1.93-18.67,2.43Z"/><path class="m" d="M681.89,185.17c17.58-31.03,26.72-63.03,25.9-91.1-7.96-.37-15.8-1.04-22.92-2.89l4.7-20.88c-8.14-12.6-22.15-24.68-45.91-20.59,1.35-4.13,4.22-5.99,5.57-10.12-8.69-.84-8.97-13.68-21.92-11.71,1.96-9.4,10.52-15.01,16.83-24.03-16.8-6.9-4.52-37.81-27.03-40.95,20.41-21.65-26.26-8.81-8.07-30.65-.53-19.29-20.34-27.46-38.19-20.48,4.26-2.83,18.61-5.82,20.5-15.29-2.19-.17-5.11-1.51-6.54-.57-.77-1.11-.5-16.06-9.87-14.74-3.56,.36-5.92,1.31-7.94,3.11-4.89,12.9-24.87,20.3-47.74,25.41-22.87,5.1-48.63,7.94-65.15,11.57-2.88-.3-5.45-.91-8.21-1.24-.3,8.3,1.32,16.27,6.69,23.37,5.58-6.98,11.7,5.19,14.99-5.14-.75-1.13-2.9-1.31-3.68-2.41l3.2-13.56c10.22,2.93,12.28,24.34,29.46,19.4,1.03,10.7-8.8,20.51-14.3,30.67,6.85,13.31,5.23,35.46,23.32,38.08,11.07,10.53-.24,21.23-7.94,31.15,9.4,1.91,9.01,16.71,20.43,12.43-1.83,15.76-16.7,30.35-26.56,43.24-1.95,12.55,6.61,6.95,17.43,7.93,7.49,17.64-30.73,15.25-18.93,33.26,1.55,8.61,18.85,10.19,27.42,4.63-3.42,13.45,13.21,17.1,6.87,29.23,35.26-5.12,6.81,35.59,40.65,34.63,8.18,17.69,30.32,21.43,48.92,31.28,27.52-12.28,51.88-30.66,68-53.02Z"/></g><g><path class="e" d="M811.6,59.55l4.59,5.48c7.34,.8,14.82-.84,15.31-8.2-7.01-5.74-13.69,2.18-19.9,2.72Z"/><path class="m" d="M1037.06,108.89c9.9-37.12,10.42-75.22,1.3-108.55-8.84-.41-17.64-1.19-25.99-3.39l-.94-24.83c-12.61-14.97-31.47-29.34-56.4-24.58,.29-4.91,2.9-7.11,3.19-12.02-9.79-1.04-13.79-16.31-27.47-14.05-.55-11.18,7.26-17.79,11.63-28.48-20.45-8.33-15.71-44.96-41.33-48.91,16.36-25.51-31.38-10.77-17.47-36.52-5.96-22.92-30.01-32.89-47.75-24.87,3.91-3.3,18.89-6.64,18.35-17.86-2.45-.23-6.04-1.87-7.35-.78-1.16-1.34-4.97-19.08-14.92-17.66-3.83,.37-6.16,1.46-7.89,3.56-3.7,30.48-79.86,33.86-114.45,41.62-3.28-.45-6.29-1.24-9.48-1.77,2.05,10.03,6.04,19.58,13.98,28.23,4.22-8.21,14.4,6.49,15.14-5.79-1.15-1.37-3.58-1.63-4.75-2.97l-.23-16.13c12.12,3.76,20.37,29.39,37.98,23.85,4.13,12.8-3.96,24.32-7.18,36.36,11.33,16.05,15.85,42.52,36.59,45.95,15.23,12.76,5.82,25.38,.18,37.14,10.92,2.43,14.78,20.13,26.15,15.16,2.55,18.82-9.62,36.11-16.72,51.43,1.53,15.02,9.34,8.42,21.58,9.72,13.48,21.24-29.46,17.92-11.08,39.68,4.27,10.36,23.86,12.44,31.66,5.84,.23,16.1,19.69,20.63,16.33,35.13,37.34-5.92,18.28,42.79,55.32,41.77,14.41,21.25,39.98,25.76,63.48,37.5,26.51-14.82,47.61-36.97,58.53-63.75Z"/></g><g class="f"><g><path class="k" d="M196.61,330.76c.95,.6,1.14,.9,1.15,1.14,.8,.33,1.57,.68,2.41,1.01l-3.56-2.15Z"/><path class="k" d="M287.63,540.62l.33,.48c-.19-.64-.46-1.4-.36-1.66q-.67-.29,.02,1.18Z"/><path class="k" d="M239.34,472.18c-.6-1.35-1.15-2.69-1.59-3.93-.17,.18,.54,1.8,1.59,3.93Z"/><path class="k" d="M164.8,313.05c1.72,1.1,3.47,2.21,5.28,3.36,1.08,.7,2.23,1.44,3.38,2.19-.68-.71-2-1.75-3.75-2.87-1.41-.91-3.15-1.89-4.91-2.68Z"/><path class="k" d="M244.4,482.27c-1.27-2.69-3.5-6.91-5.06-10.09,1.38,3.17,3.1,6.55,5.06,10.09Z"/><path class="k" d="M368.31,682.31c-.78-2.18-1.68-4.55-2.71-7.11-.2-.09-.48-.45-.62-.33l3.33,7.43Z"/><path class="k" d="M614.47,333.03l-1.95-.94c.65,.31,1.26,.61,1.95,.94Z"/><path class="k" d="M607.96,329.89c1.58,.76,3.05,1.47,4.56,2.2-1.96-.97-3.68-1.86-4.56-2.2Z"/><path class="k" d="M368.48,690.87c3.54,4.86,10.15,17.97,11.57,17.67l-11.74-26.23c3.44,9.66,4.3,15.03,.17,8.56Z"/><path class="k" d="M828.37,137.39c-8.83-3.43-13.36-4.96-15.68-5.55,5.39,1.94,10.93,3.93,16.11,5.79l-.43-.24Z"/><path class="k" d="M619.86,151.17c-.15-.38-.32-.81-.46-1.15,.21,.66,.36,1.14,.57,1.82l-.12-.68Z"/><path class="k" d="M240.06,346.65c1.22,.51,2.24,.9,3.79,1.58-1.66-.76-2.8-1.22-3.79-1.58Z"/><path class="k" d="M620.3,132.53c-1.46,5.92-1.51,12.13-.44,18.63,1.04,2.62,2.27,5.26,4.1,8.63,1.6,1.61-.27-2.96-1.83-9.03-.8-3.04-1.46-6.46-1.77-9.69-.34-3.24-.25-6.27-.07-8.54Z"/><path class="k" d="M844.58,142.51c-3.76-.77-9.27-2.57-15.78-4.88l6.86,3.95c17.74,7.16,10.36,2.53,8.92,.93Z"/><path class="k" d="M1541.37,602c-.64-.58-.95-.98-.88-1.12,.06-.15,.45-.09,1,.07,.25,.08,.55,.17,.89,.27,.14,.04,.3,.09,.45,.13l.3,.03s-.03-.07-.05-.1c-.02-.03-.09-.09,.02-.06,.07,0,.13,.02,.2,.02,.06,0,.13,0,.29,.05,.53,.16,1.07,.32,1.58,.47,4.13,1.23,7.16,2.03-1.01-2.09-.09,0-.17,0-.25-.01-.02,0-.13-.03-.07,.01l.09,.09,.08,.09h-.09c-.07-.02-.11-.01-.2-.04-.41-.13-.94-.34-1.51-.59-1.15-.5-2.43-1.12-3.7-1.75-2.57-1.27-5.2-2.64-7.84-4.03,3.07,.78-4.26-6.28-5.26-8.35-3.58-1.18,.46,3,3.04,6.21,2.57,3.19,3.72,5.51-5.73,.61-4.8-1.73-17.56-11.56-23.89-16.74,14.3,11.27-1.68,1.49-8.04-2.23-8.38-7.51-22.98-17.95-26.2-22.3-1.7-.59-8.82-5.6-13.42-9.39l.02-.97c-11.11-7.54,3.17,3.35-.06,1.94-7.9-5.64-18.98-16.15-31.67-25.61,12.68,9.46,23.83,16.54,33.38,22.66-22.16-18.51,6.48-.14,12.85,2.11-19.06-13.2-27.01-17.39-42.92-27.76-17.39-15.2,4.94-3.54,9.72-.23-17.48-11.79-36.62-23.07-46.17-29.18,14.38,6.98,12.82,4.57,25.59,11.1-12.39-11.63-16.46-11.94-23.62-15.87,3.94,2.61,9.87,6.83,10.86,8.35-15.86-12.31-16-6.44-25.59-11.09-11.07-9.97-33.33-27.46-30.14-28.56l-1.64,2.51c-14.35-9.87-6.31-6.65-7.88-9.06-6.42-2.26-1.69,4.93-25.66-11.99,6.5-1.17-20.72-15.97-17.45-19-11.19-7.94-17.65-9.7-28.84-18.58-11.24-11.38,20.94,8.06,27.32,13.75,15.99,11.72-3.29,.06,3.11,4.76l15.99,10.25c-7.91-7.06-23.92-20.27-20.7-20.37-16.05-10.74,11.23,10.92-6.44-.76l-9.59-8.48c-17.67-11.61,1.58,5.33-20.95-10.52,16.12,9.18-24.1-17.66-20.91-19.24-1.62,1.3-11.68-5.86-22.21-13.39-10.52-7.53-21.53-15.42-24.8-15.76l11.39,9.21-1.62-3.33c13.01,9.15,24.35,16,37.23,26.21-11.3-6.38,1.6,5.3-11.3-2.45-24.23-14.56-4.84-6.14-8.07-8.44l-19.48-11.33,11.39,10.23c-14.6-9.6-34.08-23.3-53.88-37.17-14.09-11.05-12.93-10.85-10.65-9.99,2.25,.88,5.6,2.47-4.46-5.61-5.03-2.83-7.12-3.63-9.62-4.89-2.52-1.25-5.43-2.97-12.3-7.49,6.9,5.7,13.56,8.11,18.6,11.64,2.58,3.24-3.66-.57-10.61-4.76-6.95-4.19-14.71-8.69-14.62-7.22-5.28-4.35-3.67-4.55,1.46-2.62-6.06-3.45-12.11-6.86-18.17-10.09-1.52-.81-3.03-1.6-4.58-2.38-1.43-.72-2.84-1.43-4.22-2.13-2.71-1.38-5.31-2.73-7.78-4.06-9.88-5.31-17.66-10.13-21.56-13.78l-11.9-2.41c-20.71-10.71-13.25-7.84-4.89-4.68,8.35,3.18,17.57,6.67,.37-2.81-14.42-7.36-28.84-14.16-35.76-16.09l12.6,6.16c-10.39-3.14-10.16-1.73-26.12-8.1-10.88-5.5-4.1-4.56-18.14-9.3-32.96-17.3-8.35-9.11-1.75-9.14-23.96-12.96,14.94,.5-2.27-6.09l4.2,2.72-27.29-8.18c22.58,14.17,10.83,1.53,18.9,9.03l14.14,6.91c-2.6-.27-12-4.55-21.26-8.66-9.25-4.12-18.35-8.08-20.26-7.87,.14-1.05,4.7-1.59,19.63,5.18l-7.33-7.56c-8.48-4.3-15.24-4.6-19.3-8.31-11.91-8.08,20.5,4.98-10.84-10.23-16.86-7.99-25.3-10.59-32.36-12.58-7.07-1.98-12.75-3.34-24.33-8.55,2.08,1.79,7.93,4.16,15.15,7.39-8.09-2.07,4.83,4.59-8.31,.04-6.24-5.45-30.97-15.66-50.13-23.05,5.51,.66-6.28-5.42,.01-3.82-9.84-3.49-19.04-6.48-23.64-6.95,9.67,4.11,12.04,5.45,10.69,5.27-1.36-.16-6.47-1.8-11.89-3.47-10.85-3.35-22.88-6.85-7.95-.15-15.33-5.63-24.45-9.28-32.1-12.56-7.67-3.25-13.84-6.13-23.74-9.59,.78-.21,10.22,2.05,15.81,3.34,2.81,.63,4.68,.99,4.12,.56-.57-.43-3.55-1.66-10.62-4.03-8.42-1.78-12.41-2.2-13.95-2.08-1.55,.14-.69,.86,.39,1.66,1.08,.81,2.37,1.69,1.74,2.14-.64,.45-3.18,.41-9.87-.45,6.93,2.06,13.73,4.27,20.44,6.59,.8,1.96-8.01-.52-17.98-3.21-4.98-1.35-10.27-2.74-14.72-3.76-4.44-1.03-8.03-1.71-9.47-1.78-6.74-1.56-1.94-1.02,2.88-.53,4.8,.5,9.64,.96,3.32-1.48-4.99-1.18-9.51-1.96-13.69-2.48l-.82-.1-1.15-.13-2.29-.24c-1.51-.18-2.98-.25-4.41-.36-1.44-.12-2.83-.16-4.2-.21-1.37-.07-2.7-.07-4-.06-5.21,0-9.94,.36-14.47,.98-4.53,.64-8.86,1.54-13.27,2.89,3.79-2.02,6.31-2.95,7.98-3.58,1.69-.62,2.54-.96,3.51-1.24,.97-.3,2-.64,4.21-1.08,2.2-.47,5.56-1.05,11.42-1.46-4.93-.09-9.17,.09-12.73,.51-1.81,.14-3.4,.47-4.91,.67-1.46,.29-2.83,.54-4.04,.82-4.85,1.15-7.73,2.28-9.54,2.93-1.81,.65-2.51,.88-2.67,.76-.15-.11,.24-.58,.78-1.06,1.09-.96,2.67-2.22,.8-1.85-.47,.09-1.15,.29-2.12,.62-.47,.18-1,.42-1.61,.69-.61,.26-1.29,.58-2.02,.99-.74,.39-1.57,.84-2.43,1.4-.89,.52-1.82,1.19-2.82,1.93-.99,.76-2.07,1.6-3.15,2.63-.56,.49-1.11,1.05-1.66,1.64-.56,.58-1.13,1.22-1.71,1.88-.36,.43-.67,.86-.96,1.27-.28,.42-.59,.79-.8,1.2-.49,.77-.94,1.44-1.28,2.1-.69,1.29-1.14,2.35-1.48,3.24-.65,1.8-.86,2.98-1.19,4.44-.29,1.47-.75,3.24-1.34,6.33-.3,1.55-.59,3.43-.83,5.79-.26,2.36-.34,5.22-.16,8.74,.33-4.02,.98-6.75,1.68-9.33,.71-2.57,1.47-4.99,2.74-8.17,1.32-3.13,3.06-7.22,7.02-12.04,3.98-4.79,10.04-9.98,20.38-13.53-3.13,2-7.8,4.32-12.71,8.2-.62,.48-1.21,1.02-1.84,1.54-.6,.56-1.23,1.12-1.83,1.72-1.17,1.24-2.4,2.53-3.51,4.01-.53,.75-1.1,1.49-1.62,2.28-.5,.8-1.01,1.61-1.46,2.46-.94,1.68-1.74,3.47-2.4,5.31-1.37,3.69-2.11,7.64-2.4,11.69-.22,4.07,.06,8.27,.88,12.51,1.61,8.47,5.47,17.03,10.02,24.21-3.18-5.94-4.54-9.47-5.37-11.73-.85-2.26-1.09-3.27-1.43-4.35-.35-1.07-.67-2.2-1.39-4.7-.66-2.49-1.76-6.37-2.13-12.8,.71-.71,1.3-1.78,1.8-2.63,.54-.84,.99-1.46,1.39-1.29,.2,.09,.39,.37,.58,.91,.19,.55,.37,1.36,.65,2.5,.54,2.28,1.26,5.91,3.27,11.3-1.75-6.3-2.45-11.76-2.25-16.96,.22-5.17,1.39-10.21,4.06-14.93,2.69-4.71,6.71-8.95,12.49-12.16,5.75-3.23,13.46-5.6,23.81-5.98,1.53,.3,1.88,.6,1.36,.89-.52,.3-1.91,.57-3.83,.97-1.94,.36-4.39,.89-7.08,1.57-2.67,.72-5.55,1.67-8.33,2.89-2.78,1.22-5.43,2.76-7.75,4.52-2.32,1.76-4.27,3.78-5.68,5.78-2.86,4.02-3.51,7.58-2.72,8.09-.67,2.06-1.27,4.52-1.59,7.27-.32,2.75-.36,5.78-.06,8.99,.6,6.42,2.65,13.61,5.81,20.79,1.57,3.58,3.38,7.15,5.3,10.62,.49,.86,.98,1.72,1.46,2.57,.48,.82,.96,1.63,1.43,2.44,.78,1.31,1.55,2.6,2.3,3.85,2.88,4.77,5.54,8.93,7.57,12.14,9.04,9.81,18.96,20.29,28.67,29.81,9.71,9.51,19.19,18.06,27.24,23.83,6.03,6.98,17.76,18,31.02,30.26,13.25,12.28,28.01,25.87,39.88,38.35,.63,1.23,2.77,3.75,5.36,6.64,2.51,2.75,5.39,5.92,7.73,8.5,3.49,3.98,4.84,5.82-.83,1.37,.96,.57,4.75,4.11,8.24,7.26,3.45,3.1,6.67,5.87,5.83,3.83-2.16-1.48-3.19-3.24-6.42-6.44,1.64,.68,3.36,1.44,5.17,2.3,2.01,2.43,4.29,4.83,6.75,7.34,2.57,2.59,5.18,5.21,7.77,7.82,2.65,2.7,5.29,5.5,7.58,8.25,2.29,2.74,4.23,5.44,5.36,7.78-.34,.46-1.51-.65-3.05-2.35-1.39-1.57-3.46-3.92-5.43-6.14-1.92-2.13-3.79-4.08-5.07-5.16-1.28-1.09-1.92-1.29-1.59-.07,2.45,1.89,5.69,4.84,9.33,8.75,1.81,1.95,3.71,4.14,5.59,6.57,1.87,2.42,3.73,5.08,5.28,8,1.19,2.33,2.29,4.86,2.42,7.51,.06,1.29-.15,2.71-1.11,3.53-.91,.82-2.09,1.18-3.24,1.39-2.34,.38-4.75,.17-7.1-.15-2.36-.33-4.7-.84-6.98-1.4-4.56-1.15-8.88-2.58-12.68-3.97-3.8-1.4-7.09-2.75-9.59-3.92-5.28-2.21-8.51-4.36-10.81-6.09-2.31-1.75-3.75-3.13-5.6-4.05-4.85-1.9-9.73-3.89-14.63-5.93-.17-.19-.32-.37-.45-.55-.19-.22-.37-.41-.53-.6-.33-.4-.62-.78-.95-1.2-.66-.83-1.47-1.76-3.16-3.08-9.83-4.97-17.01-7.24-23.44-9.62-12.93-6.83-15.61-9.16-13.28-9.15,2.33,0,9.68,2.31,16.84,4.58l14.63,7.54c2.86,.94,5.97,2.1,8.91,3.21,.73,.28,1.45,.55,2.16,.82l1.04,.39c.31,.11,.78,.3,.85,.31,.63,.19,1.21,.38,1.71,.5,1.01,.25,1.7,.33,1.9,.08,.21-.25-.09-.83-.88-1.82-.78-.26-1.39-.4-1.87-.47l-.18-.02s-.05,0-.09,0l-.19-.05-.7-.17c-.44-.1-.81-.17-1.15-.22-1.36-.21-2.13-.12-3.58-.45l-8.26-5.15c-9.29-2.93-33.99-13.67-32.16-10.79-17.37-9.5-38.65-17.75-53.88-26.68,10.38,6.28-3.78,.38-1.19,3.24l18.86,9.57c-15.52-6.74-38.18-16.03-52.04-24.1,2.28-.21,3.02-.29-3.79-4.83,9.58,6.38-27.67-10.93-6.24,1.62,8.5,3.35,16.28,6.8,26.82,12.05,5.87,5.65-10.99-2.1-21.01-5.31-12.01-5.11-35.32-15.44-51.59-22.21-9.76-5.31-11.45-9.33-29.31-15.92,20.78,12.53-22.36-6.13-29.1-6.45-16.1-8.74-27.79-10.55-40.29-18.47,7.2,2.23,32.68,14.05,39.96,15.39,1.68-1.19-3.6-6.96,21.94,4.02-29.82-15.03-18.41-6.94-32.65-12.76l10.47,4.59c-5.01-1.55,3.3,3.84-5.91-.41-17.61-8.55-27.84-13.88-36.56-18.73-8.73-4.83-15.93-9.18-27.7-15.46,4.93,3.54-6.69-.14-12.52-2.44-1.51-.75-2.83-1.41-3.97-1.98-1.31-.65-2.43-1.23-3.39-1.74-1.92-1.02-3.18-1.77-3.95-2.33-1.54-1.13-1.1-1.51-.24-1.75,.85-.24,2.14-.35,2.04-1.05-.11-.69-1.6-2.01-6.64-4.68-5.77-1.36-13.93-4.06-19.67-5.72-1.42-.4-2.7-.76-3.77-1.06-1.05-.26-1.87-.44-2.39-.52-1.05-.16-.89,.12,1.04,1.07-3.02-.97-4.87-1.53-6.14-1.98-1.28-.46-1.95-.75-2.53-1.03-.58-.28-1.07-.56-1.97-.94-.9-.39-2.22-.89-4.38-1.52-1.59,0-3.16,.05-4.94-.04-.86,0-1.76-.03-2.72-.09-.96-.05-1.93-.07-2.99-.15-2.09-.13-4.4-.26-7.01-.42-2.61-.15-5.5-.29-8.78-.27,.23-.32,.51-.81,2.38-1.08,1.89-.25,5.26-.46,12.33,.68-8.02-1.43-13.55-2.15-16.7-2.86-3.13-.69-3.86-1.53-1.63-2.57,3.89-.21,7.97-.09,12.37,.36,4.39,.45,9.1,1.26,14.09,2.45,2.98,.15,2.75-.21,.64-.84-1.06-.32-2.58-.72-4.29-1.05-.86-.17-1.82-.39-2.76-.53-.94-.15-1.93-.3-2.93-.45-3.97-.55-7.98-.81-10.98-.96-2.99-.14-5.02-.21-5.25-.67,4.82-.65,9.83-.43,14.75,.24,4.91,.65,9.65,1.74,13.84,2.41-1.31-.59-2.79-1.05-4.48-1.53-1.72-.51-3.5-.84-5.44-1.2-3.81-.62-7.9-.89-11.7-.77-3.83,.12-7.41,.6-10.68,1.29-3.27,.69-6.29,1.56-8.85,2.77-1.63,.69-3.11,1.46-4.26,2.15-.37,.28-.72,.53-1.05,.8-.33,.3-.65,.55-.94,.84-.27,.31-.59,.55-.79,.87-.25,.28-.49,.55-.71,.81-.82,1.08-1.36,1.96-1.75,2.61-.79,1.3-1.14,1.72-1.44,1.7-.3-.02-.49-.48-.66-.94-.16-.47-.26-.95-.5-.99-.72,2.73-.65,4.68-.59,6.13,.11,1.45,.33,2.38,.51,2.96,.42,1.12,.68,.75,.94-.55,.28-1.31,.51-3.54,1.51-6.33,.52-1.38,1.29-2.91,2.34-4.28,1.06-1.38,2.38-2.5,3.62-3.25,1.84-1.01,3.45-1.52,4.72-1.87,1.26-.35,2.23-.4,2.67-.33,.44,.08,.36,.34-.43,.81-.79,.56-2.26,1.21-4.77,2.99-.06,.06-.2,.19-.35,.33-1,1.06-2.32,2.67-3.09,4.83-.84,2.13-1.08,4.57-.93,6.97,.34,4.83,1.96,9.73,4.21,14.86,2.25,5.12,5.28,10.52,8.94,16.03,1.86,2.76,3.88,5.53,5.99,8.24,2.15,2.72,4.34,5.38,6.59,7.91-2.83-4.32-3.54-6.17-3.13-6.39,.45-.21,2.03,1.22,4.6,3.71,5.01,4.99,14.14,14.18,23.78,23.13-5.99-6.01-9.05-9.5-10.76-11.69-1.73-2.19-2.14-3.12-2.77-4.16-.59-1.04-1.39-2.18-3.65-4.78-1.16-1.31-2.65-2.98-4.61-5.19-1.98-2.22-4.44-5.01-7.34-8.55l2.47,.14c4.41,5.7,9.45,11.84,14.92,18.06,5.47,6.21,11.36,12.49,17.04,18.09-2.85-2.04-.55,.88-4.68-2.74,2.97,2.84,5.99,5.7,8.93,8.43l7.75,7.09c5.18,4.7,10.4,9.36,15.64,13.97l-4.04-1.91c18.8,17.74,41.52,39.9,53.53,49.51-9.44-8.08-16.15-16.72-6.02-8.51,6.22,4.34,17.14,12.66,25.82,20.56,3.13,5.83,36.41,35.13,13.83,18.34,13.96,11.51,18.48,15,22.88,18.33,4.39,3.34,8.68,6.49,21.97,17.55l-17.61-15.01c-.94-3.33,15.49,7.17-.28-8.49,10.14,8.24,12.63,9,15.91,10.55,3.26,1.57,7.32,3.9,20.37,15.6,9.66,10.5-5.62-.19-20.51-12.94,7.24,6.73,13.2,13.52,21.56,19.53,2.22,3.11-1.65,.43-6.05-2.86-4.4-3.28-9.34-7.16-9.18-6.6,13.17,12.18,.45-1,13.26,10.09,5.78,4.63,9.53,8.08,11.99,10.66,2.48,2.59,3.71,4.36,4.8,6.03,1.1,1.68,2.06,3.27,4.01,5.57,1.95,2.32,4.85,5.29,10.03,10.14-2.1-2.11-4.74-4.96-6.14-6.71-1.39-1.73-1.54-2.42,1.69,.16,6.77,6.82,11.09,11.18,14.08,14.19,1.66,1.62,2.95,2.89,4.02,3.93,1.13,1.1,2.04,1.97,2.87,2.78,1.72,1.66,3.27,3.1,5.47,5.54,2.16,2.46,5.14,5.82,8.8,11.79,.96,2.6,1.3,4.4,1.36,5.82,.03,.35,.01,.68,0,1,.05,.19-.16,.23-.26,.32-.14,.08-.28,.16-.42,.24-.54,.3-1.15,.55-1.79,.82-.8,.34-1.7,.72-2.76,1.22-1.05,.5-2.5,1.07-4.42,1.3-1.91,.24-4.16,.23-6.69-.01-2.54-.24-5.38-.66-8.61-1.28,2.03,.33,4.07,.56,6.13,.63,2.04,.05,4.14-.01,6.08-.72-2.87,.16-5.79-.32-8.52-.82-2.74-.52-5.34-1.16-7.81-1.79-4.93-1.27-9.34-2.55-13.29-3.62-9.35-1.93-18.61-4.42-28.39-7.24-4.89-1.42-9.9-2.93-15.08-4.56-2.65-.85-5.3-1.69-7.94-2.54l-8.55-2.84c-22.78-7.68-45.62-15.99-70.58-26.13l17.85,7.27c5.58,3.51-15.13-5.51-15.24-4.47l-10.46-6.09c-3.83,.45,23.9,12.88,16.57,11.64-1.39-.88-4.96-2.55-7.11-3.35l9.92,5.1c-22.73-10.86-42.29-16.09-58.12-26.99,22.29,10.22,24.62,9.65,26.83,9.03,2.23-.66,4.34-1.35,26.39,8.08-23.46-9.78-3.24-3.76-5.27-5.62-11.99-5.93-6.6-1.33-19.96-8.2,.9-1.1,30.79,11.12,18.17,4.22-2.39,1.32-14.35-4.62-20.88-5.99-9.81-5.2,.85-1.16-3.29-3.83-5.63-2.51-9.32-3.17-14.19-5.78l4.38,.56c-13.59-7.42-15.92-7.98-18.83-8.59-2.9-.62-6.37-1.29-22.11-9.14-1.67,1.19,8.23,5.48,21.63,11.41,2.52,3.38-8.19-.49-19.41-4.62-11.22-4.13-22.96-8.52-22.58-5.96-30.27-13.92,8.65,2.36-16.41-11.01-12.89-9.25,20.04,6.55,27.37,7.93l-25.72-14.33c10.34,1.18,26.28,10.12,32.34,9.53-19.59-9.61-17.62-7.71-38.09-16.3,31.09,18.06-14.99-4.9,1.97,7.11-14.53-8.08-9.54-6.42-31.18-17.08,14.07,6.09,1.79-2.24,19.99,6.63-29.35-14.15-21.79-9.57-51.07-23.86-10.19-2.34,28.06,17.55-7.81,1.62-7.59-3.77-5.69-3.86-1.25-1.63-24.6-13.41,3.78,5.3-12.51-1.47-11.08-5.23-14.57-8.08-9.79-6.32-17-7.06-8.67-1.03-19.82-6.06l4.83,2.78c-4.98-1.73,6.22,7.86-17.42-3.97-2.15-1.09-3.94-2.03-5.42-2.83-.72-.4-1.37-.76-1.96-1.08-.39-.24-.73-.45-1.04-.64-1.22-.78-1.8-1.3-2.03-1.67-.46-.74,.56-.83,.55-1.29-4.97-2.06-9.05-4.12-12.97-6.34-3.9-2.2-7.6-4.55-11.34-6.96,1.02,1.06,.61,1.39-2.21-.05l-.06-.03c-1.95-.9-3.56-1.69-4.93-2.4-.69-.36-1.31-.7-1.89-1.02-.14-.08-.29-.16-.42-.24l-.2-.12s-.07-.05-.09-.04l-.04,.09c-.12,.23-.23,.44-.35,.63-.46,.77-.86,1.26-1.15,1.6-.31,.33-.61,.47-.9,.51-.59,.08-1.06-.22-1.54-.13-.24,.05-.47,.19-.7,.54-.11,.18-.23,.4-.33,.7-.08,.3-.16,.66-.22,1.1-.54,3.39-.39,6.04-.24,8.02,.21,1.98,.52,3.32,.83,4.24,.68,1.81,1.4,1.96,2.18,2.3,.78,.32,1.64,.85,2.56,2.91,.92,2.07,1.9,5.57,3.64,11.89-1.2-4.87-2.11-9.73-2.43-14.56-.12-1.21-.08-2.42-.11-3.62,.07-1.2,.05-2.4,.24-3.59,.25-2.37,.8-4.72,1.82-6.87,.49,1.58,1.24,3.2,2.12,3.79,.22,.15,.45,.23,.67,.24,.11,0,.23-.01,.35-.05,.06-.02,.12-.04,.18-.07,.02-.04,.07,0,.13,.05l.16,.12c.84,.64,1.82,1.27,3.01,1.88-.48-.94-.01-1.36,1.37-1.2,1.24,.11,3.27,.73,5.77,1.74,2.49,1.01,5.44,2.41,8.33,3.99,.67,.93-.46,.81-2.11,.35-1.67-.46-3.89-1.28-5.66-1.85-1.78-.58-3.09-.92-3.08-.49,0,.41,1.35,1.61,4.51,3.87-1.56-.95-3.28-1.85-5.09-2.74-1.51-.73-3.1-1.51-4.7-2.29l-.3-.15c-.08,0-.09,.19-.14,.28l-.24,.67c-.18,.44-.3,.89-.41,1.34-.27,.88-.39,1.78-.59,2.62-.46-2.21-.95-2.29-1.36-1.17-.39,1.11-.55,3.36-.47,5.47,.06,1.05,.11,2.06,.15,2.92,.06,.84,.08,1.5,0,1.85-.12,.66-.64,.13-1.84-3.27,.56,3.72,1.35,6.92,2.11,9.8,.75,2.88,1.56,5.43,2.29,7.78,.39,1.17,.76,2.3,1.12,3.38,.54,1.51,1.06,2.97,1.56,4.39,1.26,3.4,2.46,6.62,3.75,9.79,2.54,6.36,5.22,12.56,8.64,19.71,3.42,7.15,7.56,15.25,13.2,25.33-1.54-1.55-6.5-8.47-12.03-17.91-5.53-9.42-11.59-21.4-15.39-32.69l.45-2.26-1.85-4.22c-.39-.81-.67-1.36-.9-1.8-.45-.86-.67-1.09-.71-.84-.04,.25,.09,.98,.36,2.03,.07,.27,.15,.56,.24,.87,.12,.41,.26,.84,.39,1.29,.29,.93,.61,1.94,.94,2.99,2.7,8.42,7.07,19.64,5.01,17.56,8.93,16.38,17.76,35.04,27.56,54.56,9.79,19.51,20.53,39.84,33.07,59.18-3.23-7.52,2.07-.05,4.1,.99-4.95-7.8-7.06-10.98-8.69-13.74-1.62-2.76-2.74-5.11-5.56-11.32,2.64,1.43,7.77,11.19,11.74,15.6,3.97,3.25-7.16-11.91-9.62-18.01,4.82,7.31,7.11,10.55,9,13,1.88,2.45,3.37,4.1,6.68,8.16,3.88,8.96,2.53,8.26,5.15,15.41,11.36,18.49,17.24,26.17,22.46,33.01,5.25,6.82,9.88,12.79,19.4,27.46-10.55-16.3,3.59,8.54-7.69-9.29l6.35,9.82c-9.49-11.79-21.28-28.59-30.62-41.73-9.35-13.13-16.32-22.55-16.72-19.27,6.67,10.39,12.95,19.02,19.63,28.19,6.68,9.17,13.77,18.88,22.21,31.37l-1.36-.62c12.04,18.16,.65-.83,4.14,3.05,7.39,9.7,11.04,16.74,14.33,22.9,1.65,3.08,3.21,5.93,5.11,8.77,.95,1.42,1.99,2.83,3.17,4.26,.59,.72,1.22,1.44,1.88,2.16,.34,.36,.68,.72,1.03,1.1,.46,.5,.93,1.01,1.4,1.52l-2.03-2.99-1.73-2.58-3.45-5.18-6.85-10.41c12.1,14.48-2.91-4.71,1.93-2.55,2.42,3.08,4.99,6.45,7.72,10.07,1.36,1.81,2.75,3.68,4.19,5.6,1.68,2.27,3.41,4.59,5.18,6.98,2.01,4.08,4.09,8.31,6.23,12.66,1.92,3.95,3.89,8.01,5.9,12.14,4,8.28,8.16,16.88,12.37,25.59,8.43,17.39,17.16,35.13,25.68,51.27-4.57-12.99-6.18-16.53-13.79-32.81,6.82,5.76,9.45,12.51,8.55,3.21l-9.23-19.83,2.96-1.77c2.62,5.37,4.99,10.81,6.97,15.74,3.23,1.79,13.63,30.24,16.12,30.7l-8.23-16.67c-2.32-9.01,6.92,10.84,13.04,22.38-3.31-12.16-17.46-36.5-28.93-60.29-.31,2.26-13.95-20.46-3.12,2.9-1.41,.31-8.67-13.24-13.04-22.38,2.91,4.46-5.12-19.56,6.01,1.53-5.36-9.48-6.61-12.01-7.72-14.53-.55-1.26-1.07-2.52-2.05-4.65-.49-1.06-1.09-2.34-1.87-3.95-1.09-2.22-2.41-4.91-4.03-8.21-.74-1-1.98-2.66-3.31-4.45,1.4,1.16-4.9-7.65-10.97-16.85-6.07-9.18-11.88-18.66-9.84-18.29-2.75-2.95-3.61-2.24-5.82-3.81-2.2-1.57-5.8-5.4-13.88-17.52,2.11,7.06,20.05,34.21,6.04,17.34l9.07,10.99c10.69,17.3-4.93-3.34,9.43,18.98-4.35-6.45-14.21-18.88-14.95-22.64,.11,4.04-5.88-3.81-12.23-12.66-6.36-8.84-13.04-18.68-14.73-18.36-2.08-5.63-6.19-12.19-14.26-24.37,2.06,1.06-1.26-6.37,5.45,2.76,4.7,8.1,8.76,13.55,13.57,22.76,.25-3.59-4.61-11.67-10.95-21.54-6.34-9.86-14.18-21.51-20.01-32.09,1.45,3.07,1.59,4.12-2.39-1.29-3.53-6.49-9.22-16.84-13.12-24.73-3.91-7.88-6.07-13.26-2.92-9.72-6.11-10.68-12.06-21.43-17.71-32.25-5.66-10.82-11.07-21.7-16.01-32.64,.78-.71,4.58,9.21,6.84,13.06-2.9-6.1-5.65-12.22-8.28-18.35-2.63-6.12-5.08-12.26-7.31-18.36-.05-.28-.1-.54-.15-.76-.03-.14,0-.14,0-.19l.02-.11c.03-.13,.06-.23,.12-.28,.11-.1,.22-.12,.38-.02,.08,.06,.15,.11,.25,.23,.17,.32,.36,.69,.56,1.11,.39,.85,.87,1.88,1.39,3,2.09,4.51,4.92,10.55,6.35,12.12-1.88-4.38-3.64-8.75-5.34-13.12l-1.62-4.33-.44-1.23c.54,.22,1.07,.39,1.58,.49-.58-.35-1.47-1.96-1.74-3.57-.14-.78-.09-1.51,.2-1.88,.28-.37,.82-.36,1.53,.2-.04-.37-.07-.71-.11-1.03-.02-.19-.04-.38-.05-.56,0-.04-.01-.11-.01-.14l.03-.03,.05-.07c.13-.19,.22-.46,.34-.73,.31-.63,.82-1.27,2.17-1.07,.67,.09,1.56,.39,2.63,.94,.53,.28,1.11,.61,1.71,1.01,.15,.1,.3,.2,.45,.31,.74,.41,1.49,.82,2.26,1.25,1.58,.89,3.24,1.81,4.97,2.78-.62,.3-2.37-.23-4.81-1.25-.61-.25-1.26-.54-1.95-.85l-1.06-.48c-.12-.06-.12-.05-.13-.05h-.05l-.1-.04c-.26-.08-.52-.18-.79-.29-1.05-.42-2.32-1.07-2.72-.47,.62,.74,1.51,.97,2.5,1.44,.26,.12,.42,.21,.73,.39,1.73,.91,3.35,1.78,4.78,2.6,2.87,1.64,4.99,3.05,5.77,4.03,29.47,13.52,28.05,8.4,43.04,13.53,23.74,11.7,1.78,2.97,2.43,4,6.94,3.62,20.16,5.72,25.25,11.54,12.16,4.24,19.45,5.74,2.78-3.33,12.58,6.29,30.96,14.13,34.58,14.84-11.66-2.1,13.86,8.22,14.13,11.28,9.46,4.92,24.72,12.69,40.09,19.84,15.37,7.16,30.85,13.69,40.65,16.33l-6.86,.69,22.79,10.15c8.03,4.86,2.8,3.09-5.87-.56-8.66-3.64-20.72-9.2-26.4-11.77,30.44,14.7,51.13,23.94,79.19,36.2-7.87-4.28-2.71-2.8-6.17-5.51,10.18,2.94,23.03,9.68,33.27,13.54,2.11,1.82,.56,2.03-7.42-1.09,6.52,2.62,13.07,5.22,19.64,7.77-2.38,1.37,7.14,5.34-12.73-1.38,6.09,2.32,12.2,4.61,18.35,6.87,3.21,1.4,5.59,2.45,7.31,3.2,2.34,1.03,3.76,1.69,4.43,2.07,1.34,.75-.29,.35-3.38-.62-1.52-.48-3.5-1.13-5.46-1.8-1.16-.35-2.41-.73-3.63-1.09-2.43-.75-4.75-1.46-6.04-1.81l7.9,3.32,2.44,1.01,3.65,1.48,7.32,2.94c9.77,3.88,19.61,7.61,29.31,10.98,10.14,2.72,6.9,1.13,6.22,.47-.37-.35-.1-.42,2.56,.21,1.32,.31,3.29,.87,6.01,1.58,1.36,.35,2.91,.76,4.7,1.23,1.75,.42,3.72,.9,5.94,1.44,7.4,2.16,14.71,3.75,21.23,4.4,6.57,.69,12.12,.32,17.03-.57,4.88-.95,9.01-2.42,12.91-4.63,1.96-1.12,3.87-2.44,5.9-4.42l.77-.79c.26-.3,.53-.58,.79-.89,.49-.66,.96-1.39,1.41-2.15l.34-.57,.04-.07v-.02c.26,.15,.09,.03,.14,.06l.02-.04,.08-.14,.16-.28c.22-.38,.42-.75,.6-1.13,.38-.75,.69-1.47,.97-2.16,.58-1.89,1.01-3.52,1.39-5.05,.33-1.55,.47-3.06,.57-4.56,.17-2.98,.01-5.94-.46-9.06-.91-6.19-3.15-13.13-7.55-21,2.22,4.59,3.6,8.76,4.48,12.57,.83,3.8,1.17,7.25,1.22,10.55-.44-4.41-1.54-7.84-2.82-10.52-.62-1.33-1.33-2.49-1.95-3.44-.69-.99-1.36-1.81-1.99-2.51-2.66-2.86-4.81-3.94-7.95-7.56-2.96-5.01-7.24-10.89-12.48-17.15-5.22-6.26-11.42-12.87-17.73-19.35-6.33-6.48-12.82-12.85-18.95-18.8-1.51-1.46-2.99-2.9-4.44-4.3-.69-.67-1.38-1.34-2.06-2-.43-.43-.86-.85-1.29-1.27-1.68-1.69-3.28-3.3-4.76-4.79,1.9,1.47,3.51,2.64,4.83,3.54,.66,.45,1.25,.84,1.78,1.16l.38,.23c.12,.07,.22,.12,.42,.27l.97,.65c2.38,1.54,3.1,1.49,2.34,.08-.19-.35-.47-.79-.84-1.31-.19-.26-.4-.54-.62-.84l-.36-.47-.21-.33c-.56-.87-1.32-1.91-2.24-3.09-1.85-2.36-4.38-5.3-7.43-8.59-14.82-13.68-21.06-17.99-25.76-20.76-4.7-2.75-7.87-3.89-16.61-10.8,15.86,8.21-19.88-19.53-15.38-18.68-19.04-16.66-38.32-33.01-57.43-49.66-9.55-8.32-19.06-16.72-28.41-25.28-4.68-4.28-9.32-8.59-13.89-12.96l-1.65-1.55c-.49-.48-.98-.96-1.46-1.45-.29,.16-.01,.9,.15,1.51,.15,.6,.17,1.09-1.02,.37-2.21-1.71-3.35-3.29-3.54-4.2-.22-.94,.41-1.28,.93-1.37-2.04-1.99-4.25-3.96-6.44-6.18-1.09-1.1-2.16-2.25-3.1-3.42-.95-1.17-1.73-2.38-2.22-3.45-.06,.93,.17,1.65,.21,2.08,.06,.44,0,.65-.22,.7-.43,.08-1.49-.5-2.98-1.55-.59-1.27-.68-2.36-.26-3.1,.42-.75,1.29-1,2.07-.99,.98,0,1.9,.25,2.72,.48,.82,.23,1.56,.49,2.24,.65,1.39,.36,2.42,.34,4.04-.1,1.31,1.04,1.51,1.52,1.28,1.77-.24,.25-.95,.26-1.67,.32-.72,.06-1.44,.2-1.62,.63-.19,.42,.21,1.12,1.56,2.02,1.31-.12,2.35,.03,3.24,.07,.88,.06,1.63,.07,2.34,.06,1.41-.02,2.71-.18,4.54-.15,1.72,2.22-3.37-.8,.33,1.84,1.72,.33,3.71,.77,5.96,1.35l1.75,.46,.46,.13,.12,.03,.06,.02,.18,.07,.77,.29,3.1,1.16c4.13,1.58,8.23,3.15,12.28,4.7,16.19,6.28,31.4,12.52,43.05,17.4l5.37,4.58c14.77,6.65,24.65,10.82,31.78,13.19,7.62,4.42,1.21,1.95-6.53-1.4,19.62,9.36,44.4,19.45,55.66,24.63-2.29,.21-11.26-5.17-14.92-5.86,24.45,12.17,57.3,23.69,72.42,33.73-2.24-.72-4.67-1.82-6.89-2.89,18.28,8.83,35.58,16.75,53.36,24.75,17.84,7.96,36.08,16.11,56.33,25.15,9.06,4.71,14.46,7.19,17.98,8.56,1.77,.68,3.07,1.08,4.14,1.34,.53,.13,1.01,.22,1.46,.29,.46,.08,.78,.08,1.52,.27,2.57,.56,5.07,1.02,10.45,2.84,5.38,1.78,13.63,5.03,27.72,10.41,.28,.81,1.7,1.85,4.08,3.11,2.38,1.27,5.66,2.65,9.58,4.09,3.88,1.39,8.41,2.85,12.97,3.92,2.34,.61,4.57,1,6.91,1.45,2.21,.32,4.51,.67,6.62,.8,4.3,.35,8.24,.28,11.78-.05,3.55-.33,6.73-.89,9.66-1.61,1.46-.38,2.86-.77,4.2-1.26,1.34-.47,2.63-1.01,3.87-1.68,1.23-.66,2.44-1.44,3.54-2.44,1.09-.99,1.97-2.25,2.54-3.29-.56,.84-1.24,1.69-2.04,2.4-.8,.68-1.65,1.26-2.49,1.67,.92-.79,1.94-1.82,2.73-3.18,.79-1.35,1.25-2.8,1.57-4.18,.61-2.8,.6-5.44,.4-7.97-.23-1.9-.44-3.68-.79-5.48-.35-1.8-.78-3.58-1.25-5.36-.96-3.55-2.13-7.11-3.54-10.69-1.39-3.57-3-7.14-4.79-10.57-1.76-3.42-3.68-6.69-5.38-9.5-5.99-8.35-14.46-18.22-24.05-28.48-4.78-5.12-9.87-10.38-15.01-15.58-2.01-2.01-4.03-4.03-6.05-6.05-1.66-1.63-3.33-3.27-5-4.91-13.39-13.03-27.04-25.58-38.34-35.2l4.97,3.33c-18.42-16.14-28.12-27.96-46.06-44.31,.74,.2,7.53,6.21,1.24-.74-10.01-10.57-19.91-21.2-29.35-32-9.4-10.78-18.5-21.8-25.89-32.86l-.39-.61-.37-.54-.59-.93c-.39-.63-.77-1.26-1.13-1.91-.73-1.29-1.4-2.62-1.96-4-.55-1.39-1-2.83-1.16-4.33-.16-1.49,0-3.06,.74-4.38,.71-1.34,1.97-2.3,3.35-2.87,1.38-.59,2.87-.88,4.37-1.05,3.01-.31,6.07-.14,9.15,.2,1.53,.19,3.28,.44,4.93,.69,1.68,.27,3.37,.55,5.06,.85,3.39,.61,6.82,1.31,10.25,2.06,6.87,1.51,13.8,3.28,20.72,5.2,13.86,3.85,27.72,8.28,41.5,13.05,27.57,9.56,54.84,20.36,81.69,31.82,51.4,22.01,105.34,47.25,160.41,74.09,13.77,6.71,27.6,13.53,41.5,20.42,6.95,3.46,13.92,6.92,20.9,10.39l5.2,2.59c1.51,.76,3.06,1.58,4.63,2.43,3.14,1.71,6.35,3.57,9.56,5.49,12.88,7.73,25.85,16.29,38.73,24.98,12.89,8.72,25.74,17.66,38.54,26.69,25.61,18.07,51.04,36.48,76.22,54.84,25.18,18.37,50.1,36.71,74.63,54.8,49.07,36.18,96.57,71.35,141.48,103.98,0,0,6.07,2.88,15.07,6.94,9,4.05,20.93,9.28,32.65,13.93,11.71,4.64,23.25,8.73,31.29,10.37,4.01,.82,7.13,1,8.76,.31,.84-.32,1.28-.87,1.57-1.44,.3-.57,.37-1.22,.02-2.1Z"/><path class="k" d="M262.37,354.44c.91,.49,1.74,.95,2.8,1.52-1.04-.61-1.93-1.09-2.8-1.52Z"/><path class="k" d="M532.69,398.13c1.83,1.68,3.73,3.31,5.62,4.95-1.8-1.68-3.63-3.33-5.62-4.95Z"/><path class="k" d="M504.46,250.01l-8.69-3.78c3.73,1.7,6.46,2.88,8.69,3.78Z"/><path class="k" d="M633.76,178c.39,1.27-.37,.94-1.57-.05-1.18-.94-2.88-2.76-4.24-4.03-1.34-1.3-2.4-2.13-2.37-1.17,.02,.48,.28,1.42,.97,2.97,.35,.77,.8,1.69,1.37,2.79,.55,1.07,1.2,2.25,2.01,3.62,2.22,3.39,4.19,6.14,6.06,8.66,1.86,2.5,3.56,4.66,5.13,6.56,3.13,3.8,5.67,6.58,7.8,8.75,4.27,4.32,6.88,6.23,9.51,8.18,2.64,1.94,5.29,3.91,9.77,8.12,4.48,4.2,10.76,10.63,20.83,21.23-6.46-7.53-12.85-15.15-19.11-22.94-.44,1.48-4.47-1.39-10.27-6.95-5.79-5.57-13.33-13.83-20.58-23.49-.93-2.37-1.85-4.74-2.72-7.16,2.78,3.05,5.75,6.3,8.85,9.69-2.61-3.61-3.94-4.92-5.38-6.42-.72-.76-1.46-1.58-2.39-2.8-.46-.62-.97-1.32-1.54-2.19-.28-.44-.58-.91-.9-1.41-.37-.61-.78-1.27-1.21-1.98Z"/><path class="k" d="M646.49,194.59c-.24-.37-.54-.85-.78-1.22-.16-.15-.34-.37-.52-.57,.43,.6,.8,1.1,1.3,1.79Z"/></g></g></g></g><ellipse class="h" cx="485.92" cy="345.08" rx="348.33" ry="343.58"/><path class="i" d="M591.08,334.47c-11.87-28.75-40.35-69.63-71.47-80.7-31.12-11.08-41.36-12.66-41.36-12.66,9.27-5.27,15.7-11.66,18.41-19.52l.53-10.55,2.9-5.8-.26-11.87,12.4-21.1v-4.22l-2.37-1.85-.79-3.96s-5.8-1.05-12.66,2.11c-6.86,3.16-27.96,32.97-27.96,32.97l.26-11.6s-.79-7.65-8.18-6.33c0,0-2.37,6.07-3.16,11.6-.79,5.54-1.32,24.26-1.32,24.26l.79,2.9,.26,11.08-1.32,5.54-7.65-7.38s-1.05,1.85-2.11,5.27c-1.05,3.43-1.58,12.13-1.58,12.13l-14.77,17.93-16.09,19.78-7.12,.53-1.58,5.8s-9.23-7.91-11.87-8.7c-2.64-.79-5.01-1.85-5.01-1.85l-2.11-6.07s2.37-9.23,2.37-13.19-2.64-11.08-4.22-14.51c-1.58-3.43-4.48-5.8-4.48-5.8,0,0-.79,3.96-1.58,6.86-.79,2.9-7.91,10.55-7.91,10.55l-1.85,.13s-12.66-3.56-22.15-4.35c-9.49-.79-15.43,0-15.43,0,0,0-11.47-12.66-17.41-22.15-5.93-9.49-10.29-13.05-14.24-24.13-3.96-11.08-5.54-24.53-5.54-24.53,0,0-7.91,13.45-8.7,22.95-.79,9.49,0,23.74,0,23.74,0,0-24.92-13.05-31.25-15.82-6.33-2.77-21.76-9.89-28.88-15.43-7.12-5.54-16.62-19.38-21.76-28.48l-5.14-9.1s-4.35,7.91-2.37,18.99c1.98,11.08,4.35,17.41,4.35,17.41,0,0-1.58-1.58-11.87-10.29s-17.41-17.01-18.99-18.99c-1.58-1.98,0,18.2,0,18.2l4.35,8.7s-41.54,0-55.38,3.56c-13.85,3.56-40.75,12.66-51.82,18.99-11.08,6.33-38.37,28.09-43.12,36.79s-13.85,20.97-18.59,39.16c-4.75,18.2-3.96,34.02,0,45.89,3.96,11.87,18.2,27.3,24.53,32.84,6.33,5.54,10.68,5.54,28.48,11.08,17.8,5.54,34.02,8.7,43.12,8.31,9.1-.4,34.42-4.75,44.7-8.7,10.29-3.96,26.9-15.03,33.63-18.2,6.73-3.16,16.62-11.08,26.51-15.82,9.89-4.75,18.99-10.68,30.07-13.85,11.08-3.16,17.01-5.93,28.09-8.31,11.08-2.37,17.41-5.54,23.34-7.12,5.93-1.58,6.59,.26,6.59,.26v4.48l4.75,.26-.79,8.44,5.8-.26-3.69,14.51-22.68,12.13s-2.64-1.58-5.8,2.37c-3.16,3.96-4.75,7.12-5.27,11.08-.53,3.96,.26,6.59,.26,6.59,0,0-4.22,1.58-5.54,3.16s-2.64,7.65-2.64,7.65v7.91s-2.9,2.37-3.16,3.16,.26,7.65,.26,7.65l2.64,2.11-.26,6.07,2.37,2.11v7.65l-1.32,7.12,5.54,3.69-.26,5.01s-10.81,4.75-19.25,10.29c-8.44,5.54-13.98,13.19-18.99,16.09-5.01,2.9-21.89,15.56-25.32,18.2-3.43,2.64-9.86,10.55-15.35,17.41-5.49,6.86-6.8,10.02-9.71,15.56-2.9,5.54-3.69,11.87-4.48,17.14-.79,5.27-3.69,10.02-5.01,14.77s-6.59,12.92-7.38,17.67-2.37,17.93-2.37,25.05-.53,15.3,.79,21.63c1.32,6.33,.26,4.22,2.37,11.87,2.11,7.65,2.9,9.23,2.9,9.23,0,0-18.2-1.85-18.99,0-.79,1.85-1.05,15.56-1.05,17.14s.79,16.62,.79,16.62c0,0-10.55,3.43-13.19,15.56-2.64,12.13,3.16,22.15,3.16,22.15,0,0-4.22,8.7-3.96,11.08,.26,2.37-4.48,11.34-4.48,11.34l-6.33,14.77-2.11,13.98s2.64,6.59,18.46,6.59,21.89,0,26.37-3.16c4.48-3.16,4.48-6.59,3.16-9.23-1.32-2.64-2.11-8.18-3.69-10.55-1.58-2.37-2.64-8.7-2.64-8.7l2.64-15.3,26.37-9.49-7.12-23.21,10.29-8.97s16.09,13.71,24,19.25c7.91,5.54,31.38,21.36,33.76,21.89,2.37,.53,10.55,1.58,10.55,1.58l-.53-3.69s-7.65-14.24-8.7-15.56c-1.05-1.32-9.49-15.82-14.24-23.74-4.75-7.91-7.65-13.98-10.55-19.78-2.9-5.8-5.8-14.24-5.8-14.24l10.55-13.19s16.35-20.31,20.31-23.74c3.96-3.43,11.34-13.19,15.3-17.67s2.9-1.05,10.02-10.02c7.12-8.97,16.62-27.69,16.62-27.69l12.13,5.01,8.44-2.11s6.07,3.43,12.92,6.33c6.86,2.9,17.67,6.07,21.1,6.86,3.43,.79,17.14,2.9,20.84,3.96,3.69,1.05,25.05,3.69,25.05,3.69l16.62,1.58s-3.96,1.32-8.44,7.91c-4.48,6.59-5.27,6.07-5.8,14.51-.53,8.44,5.01,27.96,5.01,27.96l-7.91,3.43s-3.96,.53-4.48,2.64c-.53,2.11-.26,5.8,.53,8.7,.79,2.9,.79,3.69,3.16,10.55,2.37,6.86,5.8,9.76,5.8,9.76,0,0-4.22,6.86-6.33,10.55-2.11,3.69-.26,9.23,.53,10.02s3.16,5.01,3.16,5.01l.53,8.44s-3.69,6.33-3.43,10.29c.26,3.96,8.97,32.44,8.97,32.44,0,0,.26,.53,5.27,1.85,5.01,1.32,10.81-2.64,11.6-2.9,.79-.26,2.37-7.65,2.37-7.65l10.55,14.24,40.88,1.32s9.23,1.32,8.44-11.08l-8.18-11.34-11.87-4.75-18.99-21.1,8.18-2.9,4.75-3.69,.53-5.27-12.92-5.01,4.75-19.78,4.48-9.23s3.16-6.07,3.16-8.18-15.03-4.48-15.03-4.48c0,0,11.34-46.15,12.13-48l4.29-16.09s4.81-14.24,2.18-19.78c-.94-1.97-2.71-4-5.74-6.13-5.49-3.87-11.85-8.67-13.38-9.69-2.37-1.58-7.91-4.75-11.6-7.12-3.69-2.37-13.71-9.76-13.71-9.76l7.65-23.47-7.65-1.58-2.64-2.9s-11.08-6.07-17.67-7.12c-6.59-1.05-24.79-2.9-24.79-2.9l11.34-6.59-1.94-3.69,8-12.13-9.76-3.16-7.65-1.58-1.58-8.18-5.54,5.27-5.54-5.27s-6.86,9.49-10.81,12.13c-3.96,2.64-9.49,4.22-9.49,4.22v-13.19c3.98-5.22,6.72-10.15,6.86-14.51,0,0,16.88-3.16,17.67-9.76,.79-6.59,3.43-15.03,1.32-19.78-2.11-4.75-4.22-9.56-6.33-12.43-2.11-2.87-1.05-5.77-1.05-5.77l-4.48-2.37,17.14-23.74s10.29,.79,12.4,0c2.11-.79,3.43-5.01,3.43-5.01h8.44s1.32-14.51,1.85-15.56c.53-1.05,15.3-13.45,15.3-13.45l14.24-8.7s13.19,26.64,17.93,34.55c4.75,7.91,11.6,14.77,16.88,16.62,5.27,1.85,10.55,4.22,17.67,6.59,7.12,2.37,10.29,4.22,14.77,7.91s15.3,11.6,18.46,13.98c3.16,2.37,6.86,5.8,11.08,13.19,4.22,7.38,4.48,16.09,5.01,21.1,.53,5.01,2.64,11.08,2.64,18.46s-1.58,30.86-2.9,36.13c-1.32,5.27-4.22,18.2-6.07,23.21-1.85,5.01-7.91,26.11-7.91,26.11,0,0,16.09-9.76,27.16-19.78,11.08-10.02,53.8-59.6,58.55-92.31,4.75-32.7,9.76-61.98-2.11-90.73Zm-295.38-57.76s-102.07,20.57-131.34,30.2c-29.27,9.63-49.05,17.54-63.3,15.96-14.24-1.58-18.2-2.9-18.2-2.9,0,0,8.97-17.93,20.57-22.68,11.6-4.75,13.45-12.4,50.11-16.88,36.66-4.48,64.09-6.59,64.09-6.59h78.07v2.9Zm91.52,27.03l-9.89,3.16-7.12-11.08c4.27,.89,7.99-.43,11.47-2.77,8.93,5.03,10.25,8.48,5.54,10.68Z"/></g></g></g></g></svg>