<?xml version="1.0" encoding="UTF-8"?><svg xmlns="http://www.w3.org/2000/svg" xmlns:xlink="http://www.w3.org/1999/xlink" viewBox="0 0 633 598.75"><defs><style>.e{fill:#fff;}.f{mix-blend-mode:multiply;opacity:.75;}.g{fill:#25cdd5;}.h{stroke:#a12eaf;stroke-width:3px;}.h,.i,.j{stroke-miterlimit:10;}.h,.i,.k{fill:none;}.l{isolation:isolate;}.i{stroke:#a12ead;}.i,.j{stroke-width:2px;}.j{fill:#939598;stroke:#231f20;}.m{clip-path:url(#d);}.n{fill:#a12eaf;}</style><clipPath id="d"><circle class="k" cx="443.36" cy="189.64" r="188.14"/></clipPath></defs><g class="l"><g id="a"/><g id="b"><g id="c"><g><circle class="i" cx="443.36" cy="189.64" r="188.14"/><circle class="k" cx="443.36" cy="189.64" r="188.14"/><g class="m"><g><g><path class="e" d="M319.63,83.05c5.09,3.62,6.3,3.85,6.42,3.38,.13-.46-.78-1.53,.3-.25,7.13,5.23,14.53,10.78,22.2,16.66-5.36-3.93-9.81-6.58-13.56-8.59-3.75-2-6.81-3.35-9.21-4.48-2.4-1.13-4.13-2.02-5.14-2.99-1.02-.98-1.28-2.01-1.01-3.73Z"/><path class="e" d="M400.01,133.13l11.94,7.72c.38,1.26,.29,2.77-1.46,2.72-1.73-.03-5.12-1.63-10.93-6.09,3.11,.44,3.53-.69,.44-4.35Z"/><path class="n" d="M477.44,116.55l2.57,7.17c-2.33-3.49-8.65-4.52-11.13-9.76,2.85,.84,5.7,1.7,8.56,2.59Z"/><path class="n" d="M568.04,394.75c-1.58-1.31-3.32-2.64-5.47-4.1-7.16-7.71-9.53-11.1-9.92-14.34,3.19,2,6,2.79,8.78,3.97,2.78,1.19,5.42,2.65,8.15,5.86l-.54,.1c2.61,2.56,7.39,6.56,11.62,9.6,4.26,3.06,7.94,5.11,9.03,4.56-1.48-1.82-4.71-4.5-7.92-7.49-3.19-2.96-6.39-6.23-7.17-8.46,1.86,0,5.14,1.23,8.99,3.06,3.83,1.85,8.34,4.22,12.35,6.89l-2.24-3.21-1.01-1.49-.24-.36c-.08-.12-.17-.21-.18-.5l-.16-1.45c9.84-4.25,16-2.2,24.56-4.16l-1.22,5.85c6.13,.31,9.83,7.8,20.74-.23,.23-.52,.45-1.02,.65-1.49l.31-.69,.15-.33,.07-.16,.04-.08s-.05-.07-.08-.1c-.85-1.04-1.63-1.99-2.37-2.89-1.38-1.71-2.6-3.23-3.9-4.85-2.31-2.97-4.9-6.29-9.39-12.06-.42-3.13-5.39-10.99-11.2-19.55-5.8-8.57-12.45-17.81-15.86-24.16-11.31-10.86-16.57-20.13-21.82-29.7-5.28-9.47-10.62-19.22-23.28-28.06-5.69-10.65-11.91-17.82-18.87-23.84-6.96-6.04-14.64-11.08-23.23-17.97-.5-3.57,1.08-3.86,3.76-2.25,2.68,1.6,6.47,5.09,10.38,8.89,7.85,7.56,16.18,16.5,17.87,13.2-6.96-12.73-16.6-27.01-26.81-41.27-10.2-14.3-20.95-28.56-29.84-42.32-5.79-3.48-8.51-2.19-11.22-1.89-2.72,.31-5.44-.29-11.28-7.06,3.75,2.19,6.64,2.04,8.16,.66,1.52-1.38,1.66-4.01-.07-6.53,2.79,5.54-3.41,0-6.14-.48l1.42,3.96c-7.45,1.63-10.37-2.87-13.35-8.96-2.97-6.06-6.04-13.96-13.58-17.88,2.56-4.87,3.51,4.79,9.59,4.84,3.71-.53,7.05-2.07,8.65-5.24,1.59-3.16,1.42-7.99-1.92-14.95-7.03-6.18-12.08-12.01-16.12-17.88-4.04-5.86-7.06-11.75-10.02-17.85-2.96-6.09-5.85-12.38-9.59-18.89-3.74-6.5-8.33-13.23-14.62-20.01-4.81,3.78-8.38-5.23-12.75-9.35,4.72,1.65,6.37-.97,6.38-4.85,.02-3.87-1.62-8.99-3.31-12.03-8.45-5.19-19.93-.27-27.06-10.97-1.53,4.24-3.1,8.42-4.71,12.54,.9,2.21,5.16,6.05,10.18,10.12,5.02,4.07,10.81,8.4,14.67,11.34-4.31,4.99,3.73,12.78,10.52,20.12,6.8,7.33,12.28,14.05,2.5,15.43l-1.07-5.04c-3-8.96-10.34-13.91-18.93-17.73-8.61-3.86-18.49-6.64-26.92-12.04-4.44-13.42,.3-21.65,.12-33.01-4.61-11.1-10.87-11.04-17.45-13.98-8.88-6.33-7.41-13.47-8.43-20.01-2.81-2.42-1.38,3.05-4.18,.62-1.89-4.45-3.37-9.97-6.18-12.37-9.95,5.58,2.56,20.47,7.06,31.35-3.24-1.4-5.56-.62-7.84-3.95-2.74-2.33-.42-3.14,.05-4.15l-5.52-4.7c-2.74,1.85-6.91,6.68-13.17,.01l1.8-8.28c-5.01-7.73-11.98-10.78-15.87-9.48-3.89,1.31-4.83,6.82,1.99,16l6.71-2.77c2.08,7.8,4.07,15.49,5.96,23.05-1.71,3.4-4.4,2.19-7.33,.62-1.47-.79-2.99-1.67-4.5-2.11-1.62-.59-3.26-.79-4.86-.12-2.41,.32-3.75,1.55-4.43,3.19-.68,1.65-.71,3.73-.41,5.88,.6,4.31,2.49,8.9,3.62,11.63,4.87,2.05,6.14,.96,5.73-1.41-.39-2.34-2.39-5.88-3.54-8.09,3.21,.7,6.5,1.5,9.87,2.39,1.69,.45,3.39,.92,5.12,1.41,1.84,.63,3.2,.69,4.69,.93,1.32,1.09,2.27,2.91,2.52,4.65,.06,.43,.08,.87,.05,1.28-.05,.39-.28,.61-.5,.87-.48,.49-1.2,.82-2.19,.93-1.01,1.68-5.01,2.07-8.04,2.65-3.03,.58-5.17,1.26-2.67,3.3,1.98,3.11,3.92,4.62,5.95,5.37,2.03,.75,4.11,.72,6.22,.6,4.25-.22,8.6-.85,14.11,5.14,.84-.2,1.59-.44,2.2-.81,.32-.68,.57-1.41,.74-2.17,.34-1.53,.4-3.21,.24-5.01-.32-3.58-1.5-7.6-2.96-11.65-2.91-8.1-6.92-16.33-7.26-21.47l-4.91-5.56c2.82-5.96,9.48,8.07,5.06-2.66,9.13,4.98,15.08,15.01,18.72,25.38,3.67,10.4,5.01,21.06,5.6,28.25-1.65,.94-2.69,2.56-3.59,4.37-.45,.91-.86,1.86-1.3,2.81-.9,.43-1.92,.73-2.98,1.01-2.15,.53-4.67,.71-7.94,.18-3.26-.52-7.26-1.74-12.23-3.87,.82,1.83-.54,2.97-1.38,4.22-.82,1.27-1.14,2.63,2.06,5.27,7.74,4.19,12.65,7.8,15.61,10.7,2.98,2.92,4.03,5.18,4.45,7.12,.43,1.95,.22,3.6,.9,5.59,.69,1.99,2.24,4.31,6.44,7.89,.94-.21,3.26,.75,5.96,2.06,2.7,1.3,5.78,2.94,8.14,3.96,1.57,3.71-2.14,3.46-7.97,1.54-5.84-1.92-13.71-5.4-20.63-8.3-6.94-2.93-12.95-5.33-15.56-5.69-1.3-.18-1.76,.15-1.02,1.21,.74,1.07,2.68,2.88,6.27,5.79,2.5,2.03,6.18,4.41,10.25,6.72,4.07,2.3,8.52,4.52,12.39,6.01,1.54-.03,4.78,.69,6.46,.49,1.69-.18,1.79-1.29-2.61-4.57,3.41,1.48,3.53,.39,4.9,.1,1.4-.25,3.97,.2,12.78,5.35,1.2,2.31,3.91,4.99,7.44,7.95,3.53,2.95,7.89,6.18,12.23,9.43,4.34,3.24,8.66,6.49,12.05,9.38,3.38,2.88,5.82,5.41,6.26,7.06l14.73,9.4c1.58,1.95,7.79,7.15,13.15,12.11,1.34,1.24,2.61,2.45,3.74,3.58,.98,.99,1.81,1.9,2.57,2.83,.38,.46,.72,.91,1.03,1.35,.36,.49,.47,.77,.54,1.03,.12,.51-.1,.8-.77,.79,2.35,5.63-5.27,.93-14.84-5.7-4.12-2.91-10.02-7.08-15.03-10.62-4.95-3.47-9.55-6.58-13.11-8.63,.42,2.2,.71,4.23,.87,6.11,10.73,7.87,14.55,11.7,14.6,13.05,.07,1.38-3.62,.31-7.34-.93-3.7-1.22-7.43-2.6-7.03-1.34,.42,1.28,4.98,5.18,18.31,15.1l-11.44-7.99c-9.8-7.67-19.16-13.5-25.98-17.36-6.78-3.81-11.04-5.67-9.42-3.92l11.79,9.03c24.07,17.16,32.38,24.95,36.95,30.31,2.29,2.69,3.65,4.78,5.8,7.38,2.15,2.62,5.1,5.76,10.79,10.84,.39,1.08-9.22-5.7-12.69-8.88-4.36-1.94-9-4.2-13.91-6.79,26.08,20.03,28.18,22.36,24.95,20.69-1.6-.82-4.52-2.63-6.29-3.55-1.77-.91-2.39-.94,.75,1.96,15.12,12.41,25.03,20.55,36.19,29.71,11.64,9.6,22.76,18.93,33.4,28.37-6.56-3.78-7.66-3.53-5.87-1.03,1.77,2.48,6.41,7.18,10.89,11.76,2.23,2.29,4.42,4.54,6.15,6.42l1.2,1.34,.52,.61,.24,.29c-.01,.07-.2,.1-.29,.15-.93,.35-2.04,.57-3.38,.6-5.33,.12-14.37-2.66-29.85-11.43,19.65,19,29.34,32.2,40.73,45.63,.76,.88,1.48,1.72,2.16,2.52,.38,.43,.75,.85,1.1,1.26,.37,.39,.75,.74,1.13,1.11,1.85,1.78,3.45,3.32,4.74,4.56,3.3,3.15,6.9,6.54,11,10.34,4.1,3.8,8.71,8,14.04,12.79,.67,.59,1.34,1.22,2.03,1.81,.67,.51,1.38,1.04,2.12,1.61,1.44,1.08,2.93,2.17,4.47,3.29,3.09,2.23,6.39,4.53,9.94,6.9-1.45-.37-2.92-.77-4.4-1.18-.37-.12-.74-.18-1.11-.35l-1.08-.86-2.18-1.73c-2.96-2.37-5.91-4.73-8.83-7.08-5.95-4.79-12-9.71-18.05-14.66-12.1-9.91-24.19-19.96-35.56-29.45-10.46-8.74-20.88-17.44-31.39-26.21-9.37-7.78-17.45-14.41-23.82-19.35,3.85,4.26,7.99,8.85,11.75,13.01,7.69,7.91,16.17,16.72,25.13,26.11,4.34,4.57,8.96,9.43,13.76,14.47,2.32,2.46,4.69,4.96,7.08,7.49,1.19,1.26,2.38,2.52,3.58,3.79l.9,.95,.38,.43,.68,.79c7.24,8.44,15.55,18.12,24.43,28.05,8.85,9.91,18.23,20.03,26.94,28.61,8.73,8.59,16.71,15.52,23,19.32Z"/><path class="e" d="M240.95,62.62c1.96,3.69,4.4,8.9,6.61,14.11,2.26,5.25,4.37,10.55,6.99,15.26,.83,.82,1.17,.66,1.24,.04,.07-.61-.15-1.67-.31-2.54-.16-.87-.27-1.55,.14-1.34,.41,.22,1.33,1.33,3.38,4.14-4.85-7.93-8.64-13.67-11.41-18.16-2.81-4.52-4.71-7.85-6.64-11.52Z"/><path class="n" d="M320.33,92.41l7.49,7.78c5.4,2.79,10.75,5.52,16.04,8.18,1.24-.14,.61-1-1.02-2.18-1.64-1.19-4.31-2.73-7.27-4.4-5.93-3.33-13.08-7.21-15.24-9.39Z"/><path class="e" d="M273.9,185.29c1.62,5.93-.12,9.77,5.62,10.87,2.26-1.47,4.26-3.09,6.01-4.87-.22,1.09-4.69-3.24-8.17-6.32-3.48-3.08-6.14-5.04-3.46,.32Z"/><path class="e" d="M242.1,185.22c.65,5.33,1.38,10.7,2.18,16.12,3.03,.64,5.41-.04,7.73-.13,2.33-.09,4.59,.39,7.67,3.55-8.16-7.54-8.6-15.18-17.58-19.53Z"/><path class="e" d="M321.8,237.23c-7.48-8.34-11.53-11.56-14.36-12.59-2.79-1.01-4.29,.21-5.91,1.21-1.6,1-3.32,1.78-6.23,.09-2.89-1.68-7.03-5.87-12.84-14.41-11.25-5.14-14.72-3-14.16,2.74,.3,2.88,1.64,6.68,3.57,10.94,1.93,4.26,4.44,8.98,6.91,13.6,5.72,3.56,4.49-1.53,3.86-6.85-.65-5.33-.66-10.89,6.2-9.08,5.32,4.55,11.25,9.47,16.73,14.87,5.47,5.4,10.56,11.33,13.99,17.77,7.16,4.76,10.21,5.89,10.84,4.88,.64-1.01-1.08-4.11-3.25-7.69-2.18-3.58-4.79-7.63-6.18-10.67-1.4-3.04-1.62-5.1,.83-4.81Z"/><path class="e" d="M242.42,219.87l13.97,8.68c-2.65-4.93-5.16-9.76-7.52-14.5-2,2.03-4.15,3.97-6.45,5.82Z"/><path class="e" d="M349.8,297.72c2.82-.3,5.49-.7,8-1.19l-22.34-15.1c4.63,5.34,9.41,10.77,14.34,16.29Z"/><path class="e" d="M333.77,317.3l11.78,7.33c3.42,.28,5.78-.4,5.95-2.45,.17-2.04-1.85-5.45-7-10.5-6.53-3.45-8.2-2.34-8.74-.22-.55,2.12,.08,5.28-1.98,5.84Z"/><path class="n" d="M430.69,275.47c-31.52-30.95-58.7-58.02-80.75-80.36-22.1-22.37-39.08-40.03-51.64-53.04,3.98,7.19,6.87,13.49,7.67,17.6-7.31-8.21-14.03-16.05-20.14-23.52-7.5-4.62-12.09-3.69-10.65,13.24-3.21-4.43-4.43-7.66-7.33-11.9-.59,2.11-3.35,.41-5.9-.69-2.58-1.12-4.98-1.67-5.97,2.02-3.04-4.33-4.73-8.45-6.13-12.71-1.38-4.24-2.51-8.63-3.97-13.23-1.74,.79-3.99-.44-6.16-2.38-2.19-1.96-4.3-4.64-6.21-7.04-1.93-2.41-3.66-4.55-5.61-5.74-1.96-1.2-4.15-1.47-7.42-.41,.34-1.1,.59-2.04,.76-2.84,.07-.18,.02-.43-.03-.66-.04-.23-.1-.46-.15-.68-.12-.44-.26-.85-.42-1.23-.66-1.54-1.71-2.68-3.03-3.56-2.63-1.76-6.31-2.46-10.06-3.16-7.5-1.4-15.24-2.81-15.3-12.67-14.37-16.26-37.3-21.82-47.7-14.73,1.64-2.68,11.87-6.17,6.7-14.3-2.01,0-5.49-.93-6.05-.04-1.47-.89-11.96-13.54-19.1-11.8-2.82,.54-4.17,1.5-4.63,3.15,10.06,22.45-47.75,30.29-71.37,38.38-2.75-.1-5.41-.46-8.13-.62,5.85,7.16,13.01,13.82,22.86,19.56-.2-6.28,13.96,3.71,9.32-5.29-1.47-.92-3.48-.93-4.95-1.83l-7.03-11.73c11.02,1.88,28.32,19.95,39.66,14.67,8.64,9.02,7.24,17.98,9.84,26.97,15.62,10.88,30.37,29.83,47.96,30.86,8.63,4.11,12.46,8.62,14.2,13.23,1.87,4.69,.87,8.98,2.88,14.52,6.63,1.66,14.18,6.64,21.17,10.81,6.96,4.15,13.22,7.41,16.11,4.91,17.86,18.43,25.06,37.66,36.2,55.64,9.44,8.93,14.27,11.61,17.9,12.02,3.66,.42,6.31-1.33,11.86-.97,17.86,12.3,18.3,18.73,18.81,24.9,.29,3.1,.65,6.18,3.83,10.27,3.17,4.08,9.27,9.25,20.82,16.4,9.2,6.94,18.55,10.89,24.52,11.51,6.03,.66,8.68-2.02,6.28-7.2,5.84,5.47,11.51,9.82,16.92,13.54,5.42,3.72,10.59,6.81,15.6,9.83,10.05,6.07,19.33,11.81,30.36,22.96,2-4.62,7.25-3.68,14.79,.49,7.51,4.15,17.34,11.56,27.72,19.38,10.35,7.8,21.26,16.03,29.97,21.23,1.09,.65,2.14,1.25,3.14,1.79l1.48,.77,.71,.35,.35,.17c.05,.02,.12,.06,.17,.07l.06-.03c.67-.37,1.16-.97,1.43-1.85,.54-1.77,.19-4.66-1.33-8.98,10.72,3.56,15.56,.62,18.85-3.52,3.28-4.2,5.01-9.64,9.19-12.4-11.96-15.26-25.68-30.76-40.86-46.9-7.59-8.07-15.55-16.3-23.83-24.73-7.39-7.45-16.77-16.92-28.25-28.5Z"/></g><g><g><path class="n" d="M631.16,155.75c.09-1.04-.01-2.2-.51-3.64,3.58-4.35,6.3-5.66,12.23-5.9,2.34,4.12,11.95,7.35,7.3,11.33l-1.06-.36c-2.22,3.69-2.69,13.53,2.64,15.32,3.02-2.32,2.9-10.13,10.47-12.02,6.41,2.13,11.66,8.35,13.14,15.5l9.8-5.59c4.47,4.84,3.04,9.9,5.09,15.02l-5.16,1.6c-.08,4.41-6.37,10.06,.52,14.61,7.28-.89,8.35-.52,16.13,.97,2.44,11.91,19.34,14.26,26.45,22.18,17.35-7.5,21.3,23.8,38.75,11.91,11.58,12.77,20.1,3.41,32.53,.92,4.77,16.03-21.56,1.65-21.53,13.86,13.71,13.47,34.02,20.31,49.37,32.12,7.86-2.9,5.12-13.83,14.45-9.59-5.13,1.61-6.39,10.07-3.47,12.16-2.63-3.11,1.94-2.69,3.6-4.35l-1.57-2.75c7.82-15.13,10.3,9.01,20.58,5.81-.66,6.43-2.92-2.09-6.49,2.25-4.16,6.38-6.76,15.48-.74,23.07,20.4,2.39,21.32,23.8,39.98,32.28,2.8-5.73,5.92-.24,9.13,.83-6.5,2.26-3.47,12.15-.85,15.26,5.92-.21,13.38-9.94,18.93-4.75l2.4-12.51c-1.56-2.74-12.83-4.3-18.45-5.09,4.83-12.81-24.3-9.26-12.19-22.95l1.29,3.75c5.92,11.98,20.96,.38,33.59,1.28,4.39,9.25,1.78,18.36,2.66,27.55,3.9,6.85,8.26,3.87,13.12,3.28,6.7,1.14,6.03,7.58,7.01,12.36,2.14,.7,.87-3.05,3.01-2.33,1.56,2.75,2.82,6.51,4.96,7.21,7.18-8.69-2.65-15.31-6.54-22.17,2.42-.29,4.07-1.95,5.92-.23,2.13,.71,.48,2.37,.19,3.4l4.29,1.43c1.94-2.67,4.74-8.39,9.79-5.59l-.95,7.46c8.16,8.28,21.54-1.64,10.17-11.03l-4.95,5-5.86-16.39c2.04-7.08,8.36-.52,12.23-5.89,6.3-5.65-1.3-15.97-4.69-20.44-7.27,.89-.95,7.45,1.66,10.55l-13.27,5.53c-2.14-.7-3.42-4.47-1.48-7.14,.08-4.44,7.75-10.73,3.48-12.17-9.24-8.65-7.46,9.72-16.51,4.46-4.54,11.81,8.4,23.9,9.58,32.07l3.97,2.45c-1.73,6.07-7.46-2.52-3.57,4.35-13.98-.26-19.47-22.06-21.92-33.98,4.17-6.38,.36-17.65,12.01-21.51-2.62-3.11-.89-9.18-6.23-10.99-19.42,2.39-15.86-14.18-28.68-18.49,.49,2.4-3.31,3.33-4.94,5.01-12.37-14.15,23.34-24.34-1.24-32.6-4.27-1.43-8.35,.52-9.5,4.58,1.27,3.76,.61,10.18,6.24,10.97-1.93,2.69,4.96,7.21-2.9,10.14-8.16-8.31-19.62-1.04-25.65-8.61l-5.43,2.62c-2.9-2.1-13.39-2.29-15.15-8.42-9.72-11.03,7.17-8.69,10.75-13.04l-7.89-9.31c-18.34,2.73-8.58-27.3-26.74-21.17l3.01-2.33c8.35-.53,5.9-12.45,1.91-14.9l-4.84,.59c-13.09,8.93-22.15-8.55-34.2-11.48-1.83-1.73-.98-4.76,1.15-4.04l-7.02-12.35c-10.95,9.64-7.96-4.9-15.44-7.4-7.58,1.89-12.23,5.89-20.29,5.39-8.78-18.47-25.85-12-32.19-30.78-7.95,7.34-17.56,4.1-18.1,18.34-10.08-14.45-15.68-32.33-27.01-44.09-1.84,.74-3.67,1.3-5.52,2.11-15.2,15.39-53.43,41.9-44.72,59.5Z"/><path class="e" d="M519.6,15.91c-2.35,3.45-6.58,5.63-1.65,6.45l9.75-2.22c-2.11,1.08-6.44-10.71-8.09-4.23Z"/><path class="e" d="M490.49,16.35l-6.11,11.01c4,.17,8.81-2.88,10.44,.77-2.57-4.28,.94-9.45-4.34-11.78Z"/><path class="e" d="M529.66,45.5c-3.27-17.4-20.08,5.31-19.12-14.26-13.96-5.69-16.66,6.37-19.74,16.94,4.7,3.19,8.24-12.13,18.1-10.48,3.51,4.94,7.98,10.48,4.79,17.16,11.61,9.16,7.05-10.37,15.97-9.36Z"/><polygon class="e" points="474.05 40.55 479.67 44.37 481.55 35.56 474.05 40.55"/><polygon class="e" points="509.1 75.76 516.73 74.62 508.86 68.03 509.1 75.76"/><path class="e" d="M483.73,88.86l3.77,2.56c4.57-.69,8.78-2.87,7.73-7.37-5.27-2.33-7.86,3.49-11.5,4.81Z"/><path class="n" d="M628.71,82.55c-.82-23.88-7.47-46.84-19.07-65.41-5.41,1.17-10.85,2.1-16.29,2.11l-5.11-14.76c-10.34-6.98-24.34-12.61-38.5-5.77-.72-2.99,.45-4.73-.27-7.73-6.09,.94-11.3-7.6-19.14-4.06-2.38-6.63,1.12-11.84,1.8-18.96-13.86-1.74-17.7-24.5-33.87-22.79,5.2-17.93-20.89-1.47-17.22-19.15-7.79-12.82-24.11-14.97-33.34-7.33,1.75-2.6,10.17-7,7.8-13.65-1.52,.25-3.99-.16-4.57,.71-.94-.62-6.49-10.67-12.23-8.23-2.24,.83-3.45,1.86-4.11,3.4,3.35,18.9-41.96,33.07-61.4,43.24-2.06,.25-4.02,.26-6.04,.45,3.07,5.7,7.22,10.8,13.6,14.73,1.04-5.61,9.87,1.6,8.07-5.89-.94-.64-2.46-.41-3.41-1.03l-3.09-9.65c8,.33,17.66,14.41,27.27,8.27,4.83,7.03,2.06,15.24,2.32,22.98,9.76,7.83,17.33,23.01,30.47,21.77,11.52,5.24,8.15,14.32,6.9,22.28,7.03-.28,12.59,9.74,18.54,4.94,4.98,10.9,.81,23.22-.68,33.56,3.67,8.78,7.18,3.57,14.79,2.4,12.01,10.61-14.49,15.46,.58,25.6,4.47,5.54,16.66,3.67,20.16-1.54,3.09,9.64,15.64,9.25,16.27,18.5,21.43-9.51,18.85,22.79,41,16.27,12.58,10.47,28.82,9.1,45.14,12.41,13.27-13.13,21.95-29.8,23.64-47.62Z"/></g><g class="f"><path class="g" d="M172.57,273.1c3.94,1.03,4.68,.94,4.21,.43-.76,.04-2-.06-4.21-.43Z"/><path class="g" d="M268.25,301.32c-.74-.14-1.47-.25-2.13-.32,1.5,.32,2.54,.49,2.13,.32Z"/><path class="g" d="M214.86,279.68c-.07-.2-.27-.4-.6-.63-.39,.02-.28,.2,.6,.63Z"/><path class="g" d="M438.61,202.13l-2.22-1c.34,.3,1.17,.64,2.22,1Z"/><path class="g" d="M557.45,231.63l.36,.08-.36-.08Z"/><path class="g" d="M558.64,231.9l-.83-.19c.36,.1,.7,.21,.83,.19Z"/><path class="g" d="M381.22,239.66c-4.35-2.47-6.58-3.63-7.74-4.11,2.66,1.43,5.39,2.89,7.95,4.27l-.2-.16Z"/><path class="g" d="M304.04,199.06l.35,.22c-.1-.1-.22-.18-.32-.29l-.03,.07Z"/><path class="g" d="M389.37,243.46c.57,.18,1.2,.4,1.57,.42-1.66-.93-1.84-.83-1.57-.42Z"/><path class="g" d="M303.66,201.07c-.04-.73,.07-1.39,.39-2.02-.81-.52-1.65-1.07-2.64-1.87-1.47-.75-1.64-.07-.94,.92,.68,1,2.14,2.24,3.2,2.97Z"/><path class="g" d="M389.37,243.46c-1.95-.63-4.72-1.94-7.95-3.63l3.24,2.67c8.78,5.06,5.32,1.97,4.71,.96Z"/><path class="g" d="M165.28,267.11c4.31,2.06-11.76-1.74-2.44,1.44l9.79,1.38c-1.76,.22,3.29,2.66,4.15,3.6,4.15-.24-11.25-5.92,.29-4.46,2.81-.06,11.08,2.62,15.24,4.09-9.33-3.11,.62-1.21,4.55-.59,5.62,2.31,14.96,4.79,17.38,6.48,.98-.06,5.52,1.09,8.56,2.14l.16,.55c7.05,1.63-2.22-1.14-.3-1.1,5.06,1.32,12.61,4.61,20.81,6.92-8.2-2.31-15.19-3.66-21.19-4.86,14.67,5.2-3.33,1.6-7.01,1.82,12.15,2.97,16.99,3.44,27.01,5.51,11.64,4.42-1.92,3.15-4.98,2.42,11.1,2.5,22.95,4.27,28.96,5.42-8.64-.49-7.41,.49-15.15-.15,8.45,3.58,10.6,2.79,14.99,3.28-2.49-.53-6.3-1.48-7.08-2.1,10.36,3.13,9.39-.2,15.15,.12,7.48,2.95,22.06,7.39,20.62,8.78l.39-1.8c9.15,2.08,4.44,2.21,5.68,3.17,3.71-.28-.03-3.16,15.34,.52-3.12,2.23,13.53,3.92,12.42,6.4,7.19,1.73,10.82,1.14,18.19,3.38,7.86,3.62-12.2,.59-16.52-1.05-10.34-2.68,1.68-.83-2.47-1.91l-10.07-1.87c5.35,2.04,15.97,5.54,14.34,6.38,10.2,2.11-7.76-3.38,3.44-1.14l6.48,2.41c11.19,2.19-1.8-2.59,12.67,.78-9.95-1.19,15.61,3.98,14.28,5.64,.59-1.12,7.07,.41,13.86,2.02,6.79,1.62,13.9,3.3,15.64,2.67l-7.56-2.32,1.46,1.46c-8.37-1.9-15.45-2.93-23.94-5.48,6.97,.79-1.81-2.57,6.22-1.4,15.1,2.17,3.63,2.24,5.71,2.73l12.07,1.53-7.74-2.9c4.62,.88,10.07,2.03,15.95,3.3,6.31,1.38,13.1,2.86,19.92,4.35,6.46,1.69,9.68,2.54,10.99,3.01,1.31,.46,.75,.53-.08,.54-.83,.01-1.93-.03-1.57,.25,.37,.28,2.21,.9,7.41,2.14,2.17,.23,3.61,.32,4.73,.36,1.11,.03,1.97,.05,2.93,.08,.95,.03,2.04,.12,3.59,.26,1.56,.17,3.6,.38,6.49,.69-1.68-.3-3.25-.57-4.63-.71-1.43-.19-2.71-.27-3.96-.37-2.49-.18-4.78-.3-7.14-.74-3.44-1.38,2-.58,7.55-.02,2.78,.27,5.63,.53,7.5,.51,1.92,.03,2.86-.18,2.18-.59,2.46,.47,3.62,.78,3.93,1.12,.27,.31-.29,.66-1.65,.91,4.33,.08,8.09-.16,11.39-.52,3.32-.36,6.18-.85,8.78-1.41,2.59-.58,4.89-1.23,6.89-2.18,.98-.48,1.95-1.03,2.67-1.77,.37-.38,.71-.77,.99-1.17l.21-.29v-.02s-.04-.03,.08,.01h0l.02-.05,.04-.07,.09-.14c.12-.19,.23-.36,.32-.53,0-.3-.04-.59-.08-.87-.45-2.2-1.36-3.91-2.6-5.6-.94-2.44-1.79-3.87-2.23-4.78-.46-.9-.57-1.22-.39-1.15,.35,.14,1.75,1.85,2.92,3.71,.59,.93,1.13,1.92,1.55,2.76,.41,.84,.73,1.55,.9,1.85,.17,.31,.34,.19,.32-.52-.03-.71-.2-1.98-.86-3.9-1.28-3.2-3.16-6.35-5.57-9.31-2.35-2.93-5.31-5.58-7.64-7.19,2.23,2.11,4.13,4.15,5.73,6.12-2.74-2.37-4.55-3.5-6.67-4.94-2.04-1.41-4.57-3.16-9.89-6.82-3.29-2.61-3.71-3.3-4.46-4.11-.77-.79-2-1.77-7.29-4.7-5.62-4.07-9-6.55-10.57-7.96-1.59-1.41-1.41-1.75-.22-1.48,1.19,.27,3.39,1.16,5.72,2.14,2.32,.98,4.78,2.04,6.32,2.55-4.82-3.47-6.55-4.95-6.45-5.34,.08-.39,1.98,.35,4.11,1.32,4.25,1.95,9.34,4.78,1.46,.08l3.58,2.86c-4.17-2.26-8.28-4.42-12.3-6.45l-5.93-2.97-.73-.36-.35-.17-.22-.09-.89-.37-1.79-.73c1.45,1.2,2.24,1.87,4.11,3.15,1.54,1.07,2.71,1.82,3.62,2.37,1.81,1.08,2.61,1.3,3.03,1.28,.82-.05,.23-1.01,3.32,2.21,3.89,2.57,7.71,5.15,11.38,7.75-2.38-1.01-9.84-5.94-17.44-10.56-1.89-1.15-3.77-2.29-5.55-3.36-.61-.35-1.2-.69-1.77-1.02-.52-.29-1.02-.57-1.49-.82-1.88-1.02-3.31-1.68-3.85-1.65,.09-.31,.78-.5,2.39-.04,.81,.23,1.85,.62,3.16,1.24,.33,.16,.67,.33,1.04,.51l.56,.29,.31,.17,.49,.28c1.32,.76,2.77,1.63,4.36,2.61l-3.14-3.33-.83-.85c-.23-.25-.3-.41-.46-.62l-.83-1.19c-4.27-2.88-7.97-3.31-9.84-5.66-5.77-5.23,10.8,3.71-4.96-6.47-16.95-10.66-17.35-7.52-28.82-14.7,.93,1.15,3.86,2.8,7.46,5-4.19-1.55,2.15,2.92-4.53-.31-2.83-3.48-15.17-10.58-24.51-16.03,2.87,.7-2.69-3.55,.48-2.25-4.83-2.6-9.32-4.95-11.69-5.54,9.16,6.1,4.41,3.68-.89,.98-5.29-2.7-11.12-5.69-4.2-.64-14.63-8.85-16.67-11.8-25.15-18.06,.82-.01,17.11,9.43,4.67,.97-15.47-7.76,1.38,3.61-11.01-1.89,2.94,2.11,5.91,4.2,8.89,6.28,.06,1.21-4.04-1.16-8.41-4.03-1.01-.66-2.52-1.66-2.63-1.77l-1.16-.86c-.71-.52-1.27-.9-1.61-.99-.85-.87,.09-.41,1.02-.1,.97,.34,1.81,.46,1.52-.54-1.03-.94-2.09-1.41-3.17-1.95-1.04-.51-2.05-1.07-2.17-1.66,1.92,.53,2.3,.53,2.74,.61,.41,.05,.89,.18,2.32,.42-1.92-1.33-1.07-1.27-.04-1.16,.52,.05,1.07,.09,1.5,.06,.44-.03,.76-.14,.96-.28-.84-.32-3.28-.53-3.41-1.21-1.58-.19-2.54-.25-2.89-.06-.34,.19,0,.71,1.35,1.73-2.31-.32-3.36-1.26-3.92-2.13-.29-.45-.49-.88-.87-1.41-.37-.53-1.01-1.16-1.95-2.22-.07,.52,.01,.77,0,.91,0,.15-.05,.2-.05,.27,0,.12,.16,.38,1.42,1.38-2.07-.39-3-.38-4.2-.64-1.2-.3-2.67-.73-6.04-2.75,2.1,1.91,4.71,3.18,6.92,4.33,2.26,1.16,4.08,2.09,5.75,3.6-.71,.63-2.59-.23-5.1-1.55-1.24-.65-2.6-1.4-4-2.07-1.39-.66-2.84-1.26-4.15-1.48-1.38-.73-2.8-1.71-4.06-2.87-1.24-1.16-2.38-2.47-2.89-3.96-.24-.73-.32-1.57,.15-2.32,.45-.75,1.46-1.17,2.43-1.29,1.98-.26,3.89,.02,5.38,.27,1.97-1.04,5.73-.97,9.45-.87,3.77,.12,7.59,.33,11.02-.04,.87,.27,1.87,.52,3,.78,.57,.12,1.16,.25,1.79,.39,.83,.17,1.7,.35,2.6,.53,3.88,.77,8.34,1.65,13.07,2.59,9.47,1.9,19.99,4.19,28.88,6.8,2.48,1.7,21.84,6.43,10.54,4.64,1.64,.07,16.56,3.83,12.92,1.89-1.62-.08-3.23-.8-6.45-1.59l3.2-.5c8.5,2.82,18.6,3.82,26.68,6.84,2.43,1.74-15.74-3.56-10.48-.87,8.47,.25,41.16,8.35,51.28,11.98,6.87,2.15,7.26,3.95,10.12,4.91l11.71,3.04c1.23,.88,1.25,1.53,3.25,2.75,5.67,1.91,9.73,2.43,13.38,3.1,15.01,5.07,6.52,4.19-1.6,3.15l-8.48-2.84c-6.49-.98-15.41-3.72-10.51-.87,4.41,1.03,4.42,.39,6.06,.48l4.85,2.18c5.26,.76,19.47,4.18,18.26,2.67,10.15,3.53,22.35,5.63,31.4,8.8-6.18-2.29,2-.75,.34-2.09l-11.03-3.11c4.49,.93,9.98,2.06,15.41,3.18,1.4,.3,2.79,.61,4.17,.91,1.79,.41,3.55,.82,5.25,1.22,3.42,.81,6.64,1.63,9.57,2.45-1.14,.48-1.7,.65,4.74,2.69-4.52-1.43,.97-.62,4.82-.27,1.94,.17,3.52,.26,3.46,.02-.04-.23-1.69-.76-6.13-1.93-6.01-.76-12.14-1.93-20.46-4.01-2.57-1.41-.51-1.37,2.8-.96,3.33,.42,8.03,1.2,11.16,1.41,4.07,.68,10.01,1.68,15.84,2.38,5.88,.73,11.42,1,15.65,.99,3.13,.32,5.6,.76,8.28,.89,1.34,.05,2.73,.04,4.27-.2,.77-.13,1.59-.3,2.45-.61,.86-.31,1.81-.71,2.7-1.57-1.03,.65-1.93,.87-2.57,.98-.65,.13-1.08,.12-1.3,.09-.45-.09-.1-.31,.74-.77,.41-.27,.97-.55,1.51-1.1,.27-.27,.52-.61,.72-1.01,.15-.43,.28-.91,.2-1.41-.1-2.02-1.22-4.05-2.47-5.75-.52-.72-1.08-1.38-1.64-2-.54-.63-1.11-1.17-1.63-1.68-.52-.51-1.02-.95-1.47-1.32l-.63-.5c-.19-.15-.49-.31-.7-.43-2.6-3.28-6.52-6.05-9.86-8.42-3.4-2.4-6.29-4.35-8.37-6.71,2.06,1.15,6.09,4.04,10.1,7.13,4.03,3.06,7.84,6.42,9.88,8.02,.83,.35,1.27,.11,2.47,.76,.59,.33,1.34,.89,2.35,1.87,.98,1.01,2.23,2.41,3.55,4.71,.25,.41,.48,.91,.71,1.47,.26,.54,.42,1.2,.61,1.89-.14-.68-.25-1.33-.46-1.86-.09-.27-.18-.53-.26-.77l-.27-.62c-1.33-2.75-2.49-4.29-3.39-5.41-.89-1.11-1.61-1.72-2.18-2.22-.59-.5-1.14-.86-1.87-1.45-.72-.59-1.65-1.41-3.12-2.77,1.49,1.46,2.93,2.92,4.24,4.42-1.16-1.09-1.24-.75-1.42-.63-.2,.12-.47-.01-2.35-1.92-3.45-3.63-6.41-6.39-8.99-8.79-2.64-2.44-4.8-4.42-6.8-6.27-4.15-3.79-7.71-7.17-14.61-12.77,1.34,1.41,.12,1.04-1.74,.12-.94-.47-2.05-1.07-3.13-1.7-.53-.32-1.07-.63-1.58-.93-.42-.25-.82-.5-1.18-.73-10.84-8.47,1.46-1.86-4.62-7.91-4.54-1.8-12.16-7.18-9.97-4.77-4.54-2.97-1.95-1.79-5-4.19-3.43-1.15-7.12-2.93-13.37-7.09,.83-.03,2.1-.05,7.97,4.13-6.51-4.78-8.05-7.79-4.63-6.64l10.62,7.75c5.61,2.35-9.97-7.15-8.93-7.79,4.97,2.97,8.24,5.96,11.49,7.74-2.44-3.03-12.56-8.32-18.16-11.89-8.61-5.98-4.75-4.82-4.55-5.43-7.9-4.17-3.95-.86,.17,2.52,4.12,3.37,8.39,6.81,.98,2.96-6-2.34-19.09-11.35-28.26-17.59,3.44,3.4,2.91,3.7,.3,2.36-2.61-1.33-7.27-4.32-12.01-7.55,5.97,4.49,6.51,5.38,7.36,6.4,.86,1,2.04,2.14,9.57,6.77l-.42,1.22c-6.18-4.31-13.1-9.94-19.04-14.5,1.44,.68,.23-.59,2.31,.72-6.05-4.32-11.98-8.78-17.6-13.55,.74,.29,1.47,.6,2.22,.87-1.26-1.13-2.55-2.31-3.8-3.54-.62-.62-1.27-1.23-1.88-1.87l-1.54-1.62c-1.97-2.15-3.78-4.37-5.27-6.62-1.49-2.23-2.62-4.54-3.09-6.76-.27-1.11-.26-2.2-.16-3.18,.17-.98,.47-1.84,.82-2.55-.61,1.13-1.11,2.31-1.23,3.35-.19,1.03-.23,1.87-.32,2.38-.1,.51-.3,.7-.59,.4-.25-.31-.77-1.1-.97-2.62-.35-1.41-.36-3.41,.68-5.26,.76-1.36,2.08-2.47,3.6-3.3,1.52-.85,3.26-1.4,4.97-1.77,1.01,.15,3.03,.01,5.25-.03,2.22-.06,4.65-.04,6.53,.08,1.77,.11,3.55,.29,3.68,.51,.08,.11-.2,.23-.96,.38l-3.19,.56,1.32-.11c.45-.03,.88-.06,1.3-.09,.99-.05,1.89-.09,2.71-.13,1.66-.06,3.01-.1,4.16-.14,2.31-.07,3.79-.12,5.25-.17,2.92-.07,5.75-.24,14.97,.32-4.11-.33-8.22-.6-12.32-.76-.73-.62,1.49-1.24,2.44-1.87,.95-.62,.62-1.37-5.33-2.1,7.04,.08,8.37-.42,10.3-.89,1.93-.43,4.47-.83,13.88,.26,7.51,1.76-2.57,1.85-13.11,1.09,5.3,.62,10.01,1.83,15.57,1.8,1.93,.75-.61,.8-3.57,.76-2.96-.04-6.33-.16-6.09,.06,9.56,1.24-.11-.67,8.97,.19,8,.46,10.44,1.38,12.78,2.3,2.34,.94,4.57,1.89,12.15,2.83-3.29-.54-9.08-1.89-5.04-1.75,10.1,1.78,12.95,2.08,15.13,2.12,2.18,.06,3.69-.12,11.06,1.08,7.92,3.33,3.95,4.29,17.02,7.51l-7.33-1.61c4.95,1.92,10.68,3.55,15.98,4.73,27.61,4.81,50.7,8.03,79.02,14.2l-10.12-2.24c-3.25-1.44,8.53,1.52,8.52,.88l6.06,2.39c2.03-.71-13.77-4.86-9.74-4.99,.81,.36,2.85,.94,4.06,1.16l-5.7-1.88c12.99,3.82,23.9,4.57,33.21,9.14-12.74-3.38-13.95-2.78-15.1-2.13-1.15,.65-2.24,1.34-14.78-1.68,13.32,3.06,2.01,1.86,3.24,2.73,6.88,2.11,3.65,.01,11.34,2.51-.41,.77-17.38-2.96-10.09-.35,1.2-1.07,8.06,1.04,11.68,1.07,5.66,1.92-.37,.79,2.05,1.89,3.22,.81,5.25,.77,8.06,1.73l-2.4,.2c15.71,5.57,5.23,.11,23.35,5.56,.81-.91-4.84-2.24-12.49-4.14-3.21-3.44,24.19,4.05,23.4,1.12,17.34,4.53-4.83-.32,9.66,4.51,7.63,3.9-11.28-1.4-15.33-1.32l14.92,5.34c-5.66,.59-14.91-2.76-18.14-1.66,11.26,3.3,10.06,2.42,21.74,4.97-18.1-6.87,8.44,1.05-1.59-3.98,4.22,1.49,5.62,2.15,7.53,2.89,1.93,.75,4.29,1.47,10.36,3.61-3.93-1.15-4.15-.71-4.65-.49-.25,.12-.58,.19-1.47,.04-.9-.13-2.31-.49-4.96-1.23,2.14,.59,3.83,1.07,5.31,1.51,1.48,.46,2.72,.84,3.79,1.18l5.18,1.63c3.02,.98,6.05,1.93,14.15,5.18,5.63,.68-15.64-8.51,4.27-1.51,4.21,1.76,3.16,1.94,.7,.89,13.63,6.43-2.12-2.94,6.9,.07,6.14,2.43,8.06,3.94,5.43,3.18,9.39,3.21,4.79,.09,10.94,2.45l-2.66-1.38c2.75,.75-3.44-4.36,9.62,1.38,9.48,4.29,6.16,3.72,6.18,4.27,7.56,2.88,13.02,5.87,17.81,8.68-.38-.5,.3-.51,2.53,.52,12.63,5.36,6.6,4.49,11.13,6.85,17.33,9.01-1.01-3.57,18.7,5.7l-22.67-11.25c1.26-.21,2.23-.98-2.73-3.27-.93,.78-9.47-2.16-17.09-5.84-1.67-2.21,21.22,8.25,8.86,.99,4.53,2.35,11.1,5.01,16.75,7.8-6.31-1.47,18.18,8.88,7.66,5.59,25.08,11.54,28.29,14.17,51.5,24.29-2.41-.26-17.88-5.35-29.5-11.61l-.64-1.15c-15.27-6.3,11.21,6.33,7.94,6.23,19.25,6.95,40.15,20.56,62.83,30.86-3.62-2.56,.99-.75,2.25-.93-9.06-4.25-7.62-3.22-13.83-7.26,1.68-.25,6.89,2.7,10.02,3.48,2.83,.2-6.77-3.34-9.69-5.4,8.79,3.68,8.04,3.16,13.49,4.85,4.34,3.07,3.49,3.19,6.71,5.83,21.01,10.57,19.49,7.7,36.32,16.41-9.34-4.84,3.94,3.15-6.16-2.21l5.62,2.91c-15.32-5.84-40.49-18.29-39.1-14.78,12.08,5.67,21.37,8.67,36.01,15.83l-.83,.13c10.51,5.3,.12-.63,2.82,.2,12.19,5.05,14.2,9.72,23.15,12.13l-11.91-6.31c9.58,3.57-2.6-1.49,.34-1.92,8.38,3.43,19.48,8.8,31.42,14.54,5.97,2.87,12.15,5.84,18.31,8.68,3.08,1.42,6.15,2.81,9.17,4.13,3.01,1.32,6.03,2.58,8.8,3.63-2.96-1.78-5-3-7.29-4.22-2.3-1.22-4.92-2.5-9.23-4.61,4.9-.16,8.21,1.78,4.84-2l-10.46-5.17,.76-1.97c2.89,1.37,5.69,2.85,8.14,4.26,1.01-.25,4.94,1.76,8.74,3.66,1.9,.96,3.75,1.87,5.17,2.48,1.41,.6,2.4,.89,2.65,.65l-2.02-.84-2.15-.93-4.42-1.97c-1.94-1.51-.31-1.01,2.57,.17,1.39,.58,3.11,1.29,4.87,2.02l1.24,.5c.37,.14,.74,.28,1.1,.42l.72,.23-.09-.04h-.02s0-.02,0,0l-.04,.1-.31,.81-.6,1.62c-.78,2.17-1.49,4.34-2.13,6.51-.32,1.09-.63,2.17-.92,3.26-.04,.16-.07,.22-.11,.29l-.11,.21-.2,.42c-.12,.29-.23,.57-.33,.87-.39,1.17-.54,2.41-.45,3.63-.08-1.16,.05-2.34,.41-3.49,.18-.57,.41-1.13,.69-1.67l.05-.1,.05-.2,.11-.4,.22-.8c.15-.53,.3-1.07,.46-1.6,.63-2.14,1.32-4.31,2.1-6.48,.38-1.07,.81-2.23,1.2-3.22l.11,.02s-.18-.14-.27-.21c-.13-.08-.17-.12-.39-.24-.38-.21-.74-.4-1.2-.63-.47-.23-.97-.47-1.48-.73-2.13-1.02-4.75-2.19-7.61-3.43-5.73-2.49-12.44-5.32-18.81-8.38,.59,1.14-12.81-3.65-.48,2.54-.53,.7-8.13-2.5-13.02-4.88,2.73,.86-8.55-6.77,3.2-1.7-11.44-4.51-4.88-2.37-17.35-7.98,1.98,.33-21.41-10.52-19.18-11.46-4.24-1.23-.99,2.52-15.26-4.43,2.9,2.84,18.68,10.83,7.44,6.8l7.29,2.66c9.65,5.41-3.28-.16,9.42,6.69-3.76-1.94-11.78-5.12-13.09-6.78,2.14,4.03-19.78-8.28-21.28-6.83-2.49-2.12-6.23-4.05-13.44-7.36,1.29-.17-2.33-2.74,3.41-.47,4.47,2.44,7.91,3.81,12.68,6.83-1.62-3.76-18.02-9.82-29.6-16.12,1.56,1,1.92,1.46-1.52,.2-7.04-3.91-22.79-12.12-17.66-11.02l-36.66-17.43c.11-.64,5.33,2.28,7.65,3.18l-20.41-9.89c-4.41-3.05,7.32,2.57,9.74,2.83l-14.78-7.02,2.42,.25c-3.86-1.26-21.01-9.12-24.59-12.25-8.22-3.64-12.56-4.79-17.52-6.45-4.98-1.65-10.57-3.84-21.45-9.41,1.38-.87,12.77,5.26,18.26,6.83-4.11-2.43-17.73-7.56-19.47-9.73-16.37-6.43-15.59-3.43-23.94-5.59-13.36-5.5-1.02-1.68-1.4-2.25-3.91-1.75-11.3-2.12-14.32-5.23-3.47-.84-6.27-1.32-6.98-1.07-.7,.24,.73,1.17,5.52,3.28-3.61-1.42-8.07-2.95-12.03-4.05-1.99-.55-3.81-1.01-5.35-1.31-1.56-.33-2.51-.43-3.02-.43,6.42-.22-8.06-3.14-8.44-4.94-10.9-3.51-35.18-10.85-46.11-11.59l3.64-1.25-12.99-3.3c-9.33-3.88,11.77,1.74,18.25,3.43-17.45-5.05-29.23-8.07-45.12-12.15,4.51,1.65,1.64,1.36,3.69,2.58-5.67-.57-13.01-3.13-18.74-4.31-1.25-.85-.43-1.15,4.05-.17l-11-2.49c1.19-1.09-4.15-2.41,6.89-.56l-10.22-2.12c-11.09-3.08,.77-.96,3.62-.7l-17.64-4.54c-6.53-.79,3.34,2-8.97-.52-16.1-5-37.2-9.19-56.12-13.06,4.38,1.24,8.74,2.51,13.08,3.8-11.31-2.58-9.44,0-13.11,.24-10.47-2.19-24.77-4.43-33.83-6.13,5.26,.17,6.86-.23,5.98-1.01-.89-.77-4.29-1.9-9.13-2.96-11.07-1.41-15.46-1.11-18.53-.68-3.09,.48-4.88,1.09-11.37,1.35,5.07-1.22,1.08-1.61-4.12-1.63-.47,0-.95,.01-1.43,.02-.53,.02-1.07,.04-1.6,.05-1.07,.04-2.14,.07-3.17,.15-2.07,.12-4.02,.31-5.64,.48-1.63,.17-2.93,.34-3.73,.39-.81,.05-1.13-.02-.75-.28-5.13,1.03-9.88,2.67-13.8,5.07-3.93,2.39-7.2,5.42-9.54,9.43-.25,.45-.47,.92-.71,1.38-.11,.52-.4,.96-.59,1.45-.47,.94-.72,1.96-1.04,2.95-.18,.49-.23,1.01-.34,1.51-.09,.51-.23,1.01-.28,1.52l-.12,1.53-.06,.76v.76c-.04,4.04,.91,8.03,2.51,11.99,1.6,3.96,4.16,7.87,7.08,11.59l2.26,2.77,2.47,2.67c.82,.89,1.64,1.78,2.52,2.63l2.3,2.22c4.43,4.12,8.9,7.82,13.41,11.4,4.51,3.57,9.05,6.98,13.61,10.35-.24-.62-6.66-5.95-2.34-3.21,8.79,6.01,12.28,9.7,13.16,10.98,11.29,7.6,18.22,11.16,22.35,12.99-5-3.03-5.23-3.66-3.93-3.65,11.29,7.26,7.22,6.7,18.48,12.65,2,3.04-12.16-7.17-11.91-5.35,9.81,6.63,16.32,10.17,23.85,14.3,1.12,1.82-6.69-4.15-1.69,.04,3.87,2.36,7.94,4.84,12.05,7.35,2.04,1.25,4.09,2.51,6.13,3.77l.38,.24,.19,.12,.06,.03,.23,.11,.47,.23,.97,.49c2.6,1.32,5.53,2.97,7.85,4.44-.41,.21-.88,.38-1.42,.51,2.09,1.57,3.93,2.86,6.23,4.39-.11,.3-.46,.32-.84,.14h0c-.65-.31-1.51-1.05-2.31-1.7,.3,.37,.68,.77,1.06,1.26,.26,.32,.51,.68,.73,1.08,.19,.38,.38,.87,.24,1.22-.15,.33-.4,.51-.63,.65-.24,.14-.48,.24-.71,.33-.95,.33-1.92,.43-2.75,.39-.51-.48-.06-.46,.47-.42,.52,.04,1.13,.08,.74-.33-1.25-.15-2.16-.14-3.08-.1-.91,.04-1.85,.12-2.91,.11-2.06,0-4.76-.4-6.42-1.57,.36-.12,.78-.06,1.18,.03-.83-.18-1.64-.37-2.45-.54l-1.28-.27c-1.27-.29-2.53-.57-3.78-.86-5.04-1.15-10.03-2.29-15.07-3.44-10.1-2.33-20.45-4.79-31.88-7.79-20.56-7-7.22-.02-27.8-5.78,.71-3.12-28.01-7.87-36.57-10.82l2.65,1.21c-10.51-1.55-24.27-6.48-31.18-9.25-15.38-4.35-38.6-10.41-54.55-12.92l3.26,.1c-6.55-1.17-11.79-2.45-17.06-3.71-1.32-.31-2.64-.62-3.98-.93-1.44-.31-2.9-.63-4.41-.96-4.34-.9-8.93-1.78-13.84-2.49,.24-.08,2.2,.14,3.15,.17,.95,.04,.88-.16-3.1-1.04-6.16-1.24-12.33-2.34-18.21-3.07-5.86-.72-11.35-1.02-16.01-.75-2.31,.15-4.43,.42-6.39,.79-1.93,.38-3.72,.85-5.39,1.41-1.67,.57-3.25,1.2-4.72,2.04-.73,.42-1.44,.89-2.19,1.43-.75,.52-1.5,1.15-2.16,2-.69,.82-1.27,1.95-1.62,3.08-.37,1.14-.47,2.25-.47,3.25,.02,2.02,.45,3.74,.99,5.42,1.12,3.33,2.84,6.48,5.23,9.87,2.42,3.37,5.64,6.94,9.77,10.6,2.04,1.82,4.27,3.66,6.63,5.48,2.34,1.83,4.83,3.63,7.35,5.43,5.08,3.58,10.36,7.08,15.69,10.47l3.62,2.29,2.59,1.61,5.18,3.18c6.92,4.21,13.85,8.31,20.77,12.38,13.84,8.13,27.65,16.11,41.25,24.19,7.74,4.62,15.61,9.32,23.61,14.1,3.97,2.41,7.97,4.84,12,7.28,2,1.23,4.01,2.47,6.02,3.71,1.34,.84,2.69,1.68,4.04,2.53,3.5,2.24,6.98,4.51,10.34,6.94,1.68,1.22,3.33,2.47,4.9,3.83,.78,.68,1.54,1.4,2.23,2.17,.67,.78,1.37,1.62,1.54,2.67,.04,.3,0,.63-.17,.89-.17,.26-.44,.45-.72,.57-.57,.26-1.2,.36-1.82,.43-1.25,.13-2.5,.1-3.75,.03-2.5-.15-4.97-.49-7.44-.86-2.46-.38-4.91-.83-7.36-1.3l-3.66-.73-6.17-1.31c-22.96-5-45.95-10.71-68.61-16.52-45.33-11.66-89.39-23.79-129.73-34.8,0,0-14.49-.81-28.17-.75-13.68,.07-26.57,1-23.29,4.85Z"/><path class="g" d="M497.66,102.94c1.33,.13,2.68,.23,4.03,.33-1.32-.16-2.64-.28-4.03-.33Z"/><path class="g" d="M604.7,233.99c-.6-.6-1.27-1.2-1.91-1.8-.63-.6-1.3-1.2-1.99-1.79,.86,.77,1.56,1.43,2.2,2.02,.64,.59,1.2,1.11,1.7,1.57Z"/><path class="g" d="M301.4,193.75c.8,.13,1.41,.54,2.05,1.08,.62,.53,1.34,1.24,2.16,1.83,.81,.59,1.68,1.07,2.46,1.27,.79,.22,1.44,.06,2.52-.15,.52-.34,1.06-.45,1.5-.56l1.12-.24c.62-.14,.99-.28,1.22-.47,.46-.36,.33-.88,.31-1.37-.01-.49,.08-.97,1.2-1.13,1.1-.17,3.31,0,7.15,.81-2.73-.9-5.75-1.81-9.06-2.69,1.23,1.06,.7,1.64-.45,2-1.18,.38-3.07,.44-5.4,.76-1.45-.47-2.98-.9-4.56-1.22,.03-.77,.47-1.27,1.09-1.64-1.36-.06-1.37,.29-1.45,.6-.04,.17-.11,.32-.37,.48-.25,.17-.75,.3-1.49,.65Z"/><path class="g" d="M305.4,192.07l-.57-.1s-.08,.04-.12,.06c.23,.01,.4,.01,.69,.05Z"/></g></g></g></g><circle class="h" cx="443.36" cy="189.64" r="188.14"/><path class="j" d="M470.28,145.13c-2.18-3.96-6.92-8.7-9.1-10.48-2.18-1.78-4.75-5.54-6.53-5.34-1.78,.2-17.8,6.73-17.8,6.73l-1.19,1.19s-5.54,.2-6.73,.2-3.16,1.38-4.15,2.57c-.99,1.19-1.78,1.38-1.98,3.36s.59,6.13,.59,6.13l-55.38,24.33s30.26-8.7,34.62-9.3c4.35-.59,10.09-1.78,13.45-.99,3.36,.79,4.55-.2,6.53,2.18,1.98,2.37,2.57,4.15,1.78,5.74-.79,1.58-1.98,6.92-1.98,6.92l1.98,.79-2.97,3.16s-5.93-6.53-7.71-6.13c-1.78,.4-23.34,18.79-23.93,19.19-.59,.4-15.43,9.89-15.43,9.89l-4.55-.4-4.95,6.73-13.45-1.38-3.96,2.77-1.58-7.91-6.13,1.19-10.09,.99-7.12,.4v7.52l-8.9-8.7-2.18,2.37s1.19-8.9,1.19-15.82-10.68-18.99-13.85-21.96-13.45-7.91-13.45-7.91l4.55-.59v-2.57l4.15,1.58s-5.93-9.49-10.09-11.87c-4.15-2.37-11.27-2.37-14.24-2.37s-4.55,.2-4.55,.2c0,0,.4-5.54,0-9.89-.4-4.35,0-7.32-1.58-11.87-1.58-4.55-6.33-13.45-6.33-13.45,0,0-.59,3.76-1.78,8.31-1.19,4.55-2.57,9.3-3.96,11.08-1.38,1.78-1.98,3.76-1.98,3.76,0,0-32.44-4.75-39.56-4.75s-22.55,1.78-24.33,2.37c-1.78,.59-.79,3.36-.79,3.36,0,0,13.45,1.98,19.38,3.96s15.23,3.16,21.36,5.54c6.13,2.37,4.95,2.37,4.95,2.37l-34.81,13.45-4.55,5.74s-19.38,4.35-25.91,4.35-12.66-.59-17.01-1.19c-4.35-.59-17.8-1.98-22.75-2.97s-21.76-7.91-21.76-7.91c0,0,3.96,11.47,11.27,16.22l12.07,11.8-18.99,5.27s-3.16,2.11-17.93,0c-14.77-2.11-31.12-2.11-39.56-8.97-8.44-6.86-3.16,0-3.16,0,0,0,.53,2.4,7.38,9.9,6.86,7.5,8.97,10.14,8.97,10.14l-24.26,2.11s-22.68,.53-27.96,0c0,0-2.64,2.11,6.33,7.91,8.97,5.8,11.08,6.86,11.08,6.86,0,0-8.97,5.8-13.19,11.08s-11.6,6.33-12.66,19.52c-1.05,13.19-4.22,16.88,0,31.12,4.22,14.24,6.33,13.71,13.71,21.63,7.38,7.91,15.3,8.44,25.85,10.55,10.55,2.11,40.09-.53,48.53-2.64,8.44-2.11,18.99-1.58,38.51-4.75,19.52-3.16,40.62-11.08,46.95-11.6,6.33-.53,17.41-4.75,17.41-4.75l2.64,8.85-13.71,2.76s-6.33,1.58-8.44,3.69,0,5.8,0,5.8l-2.64,3.41-3.69,2.92-6.33,4.75-3.16,4.22,2.11,4.75-12.66,18.46-.53,7.91h7.91l4.22,4.22h-7.91l-.53,8.97-4.22,12.13,4.22,6.33s.53,2.64,2.64,2.64h5.27l3.16,10.02,5.27,2.11s-12.13,13.19-15.3,19.52c-3.16,6.33-12.13,19.52-12.13,19.52,0,0-2.11,2.64-5.27,4.75-3.16,2.11-9.49,4.75-9.49,4.75,0,0-8.97-.53-15.3,4.22-6.33,4.75-7.93,8.44-11.35,13.19-3.42,4.75-8.16,12.66-8.16,12.66l-22.15-4.22-6.86,4.22s-5.27,4.22-5.27,9.49,.53,14.24,.53,14.24h-18.46s-4.22,10.02-4.22,21.1,3.16,17.41,3.16,17.41l-10.02,9.49-7.91,11.08s-6.86,4.75-7.91,10.55,0,12.13,0,12.13c0,0,2.11,4.22,10.55,4.75,8.44,.53,20.57,0,25.85-3.16l5.27-3.16,5.8-2.11,14.24-26.9,14.77-2.11,.53-21.1,24.26-7.38s.53-3.69,1.05-8.97c.53-5.27-1.05-10.02-1.05-10.02,0,0,8.44-2.64,18.99-8.97,10.55-6.33,13.19-14.77,13.71-17.93l22.68-16.35s18.99-8.97,28.48-12.66,43.25-21.1,43.25-21.1c0,0,2.84,1.71,6.99,1.91,4.15,.2,10.29-.59,10.29-.59l2.18-3.36h8.11l-1.58,3.96s1.78,2.57,6.92,2.37c5.14-.2,6.73-.2,10.29-1.78,3.56-1.58,3.76-1.38,4.15-2.57,.4-1.19,0-3.16,0-3.16l3.76-1.58s8.31,3.56,12.07,4.35,6.73,.99,6.73,.99c0,0,3.96,1.38,5.93,2.18,1.98,.79,6.73,1.58,6.73,1.58,0,0,3.36,1.19,5.34,1.19s25.12,2.18,25.12,2.18l-11.47,13.05c-.79,2.57-.4,19.78-.4,19.78h-14.24s-3.16,5.14-3.16,8.31,2.18,12.26,2.77,14.04c.59,1.78,3.56,12.86,3.56,12.86,0,0-7.12,6.92-8.11,9.69s-4.95,20.97-4.95,20.97l4.55,3.56-1.38,15.63,7.32,29.47s2.57,1.38,6.92,.79c4.35-.59,7.91-2.18,7.91-2.18l-.4,6.53s4.55,4.55,13.85,5.14,9.1,.59,16.22,0c7.12-.59,14.24-.4,17.41-3.56v-9.89s-5.14-7.91-9.1-11.47-10.68-11.08-10.68-11.08l-1.38-5.54,4.55-8.7,.4-10.29-5.54-10.48,17.41-9.3s4.55-6.73,4.35-11.67c-.2-4.95-2.57-11.47-3.96-13.85-1.38-2.37-3.76-6.13-3.76-6.13,0,0,7.13-8.9,7.72-11.67,.59-2.77,0-9.1,0-9.1l5.73-13.05,3.76-9.1s1.78-.59,1.38-4.55c-.4-3.96-1.19-6.73-1.19-6.73l-5.74-10.48-8.9-16.02-21.76-19.58-.2-4.95s-11.47-12.07-16.22-15.82-14.64-10.29-17.01-11.47c-2.37-1.19-7.52-4.75-9.1-5.14-1.58-.4-4.95-.79-4.95-.79l.4-7.12-1.98-5.14-2.37-5.74,1.38-.59s35.01-12.07,39.16-14.44c4.15-2.37,10.68-5.74,12.46-7.52s3.36-2.37-3.16-5.34-20.37-4.35-20.37-4.35l45.49-28.68,42.92-23.74-3.56-1.78,11.67-9.89-22.75,4.15,18-21.76-3.16-1.98-.99-5.34,15.43-14.24h4.15s17.21-13.05,18.2-13.65c.99-.59,7.91-8.11,8.31-15.63,.4-7.52-1.98-15.03-4.15-18.99ZM128.87,241.66h-18.99l27.49-15.43-8.51,15.43Zm56.57-7.91l-42.13,4.55,19.78-18.99c8.64,5.37,17.66,6.88,27.1,4.15l-4.75,10.29Zm-6.13-26.7s12.07-8.11,14.44-9.49l2.37,3.56-16.81,5.93Zm24.53,23.14s3.76-5.34,4.35-5.74l2.97,4.55-7.32,1.19Zm83.87-41.14c-2.92,4.74-7.8,8.71-14.24,12.07l-11.47-14.24-2.77-7.91v-.99s11.03,2.63,15.03,4.15c5.28,2.01,14.25,6.76,13.45,6.92Zm3.76,79.12v-15.63l8.31-5.93h8.31l1.78,1.78-12.26,7.71,14.24-6.13,3.36,1.38,5.54-2.97,1.38,.79-30.66,18.99Z"/></g></g></g></g></svg>